# MagicaVoxel @ ephtracy

# material
mtllib Bench.mtl
usemtl palette

# normals
vn -1 0 0
vn 1 0 0
vn 0 0 1
vn 0 0 -1
vn 0 -1 0
vn 0 1 0

# texcoords
vt 0.373047 0.5
vt 0.994141 0.5

# verts
v -1.5 0 4.5
v -1.5 0 3.5
v -1.5 0 -9.5
v -1.5 0 -10.5
v -1.5 1 4.5
v -1.5 1 3.5
v -1.5 1 -9.5
v -1.5 1 -10.5
v -1.5 2 4.5
v -1.5 2 3.5
v -1.5 2 -9.5
v -1.5 2 -10.5
v -1.5 6 4.5
v -1.5 6 -10.5
v -0.5 1 4.5
v -0.5 1 3.5
v -0.5 1 -9.5
v -0.5 1 -10.5
v -0.5 2 4.5
v -0.5 2 3.5
v -0.5 2 -9.5
v -0.5 2 -10.5
v 3.5 0 4.5
v 3.5 0 3.5
v 3.5 0 -9.5
v 3.5 0 -10.5
v 3.5 1 4.5
v 3.5 1 3.5
v 3.5 1 -9.5
v 3.5 1 -10.5
v -0.5 0 4.5
v -0.5 0 3.5
v -0.5 0 -9.5
v -0.5 0 -10.5
v -0.5 1 4.5
v -0.5 1 3.5
v -0.5 1 -9.5
v -0.5 1 -10.5
v -0.5 3 3.5
v -0.5 3 -9.5
v -0.5 4 4.5
v -0.5 4 3.5
v -0.5 4 -9.5
v -0.5 4 -10.5
v -0.5 6 4.5
v -0.5 6 -10.5
v 3.5 1 4.5
v 3.5 1 3.5
v 3.5 1 -9.5
v 3.5 1 -10.5
v 3.5 2 4.5
v 3.5 2 3.5
v 3.5 2 -9.5
v 3.5 2 -10.5
v 4.5 0 4.5
v 4.5 0 3.5
v 4.5 0 -9.5
v 4.5 0 -10.5
v 4.5 1 4.5
v 4.5 1 3.5
v 4.5 1 -9.5
v 4.5 1 -10.5
v 4.5 2 4.5
v 4.5 2 3.5
v 4.5 2 -9.5
v 4.5 2 -10.5
v 4.5 3 3.5
v 4.5 3 -9.5
v 4.5 4 4.5
v 4.5 4 3.5
v 4.5 4 -9.5
v 4.5 4 -10.5
v -1.5 0 4.5
v -1.5 1 4.5
v -1.5 2 4.5
v -1.5 6 4.5
v -0.5 0 4.5
v -0.5 1 4.5
v -0.5 2 4.5
v -0.5 4 4.5
v -0.5 6 4.5
v 3.5 0 4.5
v 3.5 1 4.5
v 3.5 2 4.5
v 4.5 0 4.5
v 4.5 1 4.5
v 4.5 2 4.5
v 4.5 4 4.5
v -1.5 1 3.5
v -1.5 2 3.5
v -0.5 1 3.5
v -0.5 2 3.5
v 3.5 1 3.5
v 3.5 2 3.5
v 4.5 1 3.5
v 4.5 2 3.5
v -1.5 0 -9.5
v -1.5 1 -9.5
v -0.5 0 -9.5
v -0.5 1 -9.5
v -0.5 3 -9.5
v -0.5 4 -9.5
v 3.5 0 -9.5
v 3.5 1 -9.5
v 4.5 0 -9.5
v 4.5 1 -9.5
v 4.5 3 -9.5
v 4.5 4 -9.5
v -1.5 0 3.5
v -1.5 1 3.5
v -0.5 0 3.5
v -0.5 1 3.5
v -0.5 3 3.5
v -0.5 4 3.5
v 3.5 0 3.5
v 3.5 1 3.5
v 4.5 0 3.5
v 4.5 1 3.5
v 4.5 3 3.5
v 4.5 4 3.5
v -1.5 1 -9.5
v -1.5 2 -9.5
v -0.5 1 -9.5
v -0.5 2 -9.5
v 3.5 1 -9.5
v 3.5 2 -9.5
v 4.5 1 -9.5
v 4.5 2 -9.5
v -1.5 0 -10.5
v -1.5 1 -10.5
v -1.5 2 -10.5
v -1.5 6 -10.5
v -0.5 0 -10.5
v -0.5 1 -10.5
v -0.5 2 -10.5
v -0.5 4 -10.5
v -0.5 6 -10.5
v 3.5 0 -10.5
v 3.5 1 -10.5
v 3.5 2 -10.5
v 4.5 0 -10.5
v 4.5 1 -10.5
v 4.5 2 -10.5
v 4.5 4 -10.5
v -1.5 0 4.5
v -0.5 0 4.5
v 3.5 0 4.5
v 4.5 0 4.5
v -1.5 0 3.5
v -0.5 0 3.5
v 3.5 0 3.5
v 4.5 0 3.5
v -1.5 0 -9.5
v -0.5 0 -9.5
v 3.5 0 -9.5
v 4.5 0 -9.5
v -1.5 0 -10.5
v -0.5 0 -10.5
v 3.5 0 -10.5
v 4.5 0 -10.5
v -0.5 1 4.5
v 3.5 1 4.5
v -1.5 1 3.5
v -0.5 1 3.5
v 3.5 1 3.5
v 4.5 1 3.5
v -1.5 1 -9.5
v -0.5 1 -9.5
v 3.5 1 -9.5
v 4.5 1 -9.5
v -0.5 1 -10.5
v 3.5 1 -10.5
v -1.5 2 4.5
v -0.5 2 4.5
v 3.5 2 4.5
v 4.5 2 4.5
v -1.5 2 3.5
v -0.5 2 3.5
v 3.5 2 3.5
v 4.5 2 3.5
v -1.5 2 -9.5
v -0.5 2 -9.5
v 3.5 2 -9.5
v 4.5 2 -9.5
v -1.5 2 -10.5
v -0.5 2 -10.5
v 3.5 2 -10.5
v 4.5 2 -10.5
v -1.5 1 4.5
v -0.5 1 4.5
v 3.5 1 4.5
v 4.5 1 4.5
v -1.5 1 3.5
v -0.5 1 3.5
v 3.5 1 3.5
v 4.5 1 3.5
v -1.5 1 -9.5
v -0.5 1 -9.5
v 3.5 1 -9.5
v 4.5 1 -9.5
v -1.5 1 -10.5
v -0.5 1 -10.5
v 3.5 1 -10.5
v 4.5 1 -10.5
v -0.5 3 3.5
v 4.5 3 3.5
v -0.5 3 -9.5
v 4.5 3 -9.5
v -0.5 4 4.5
v 4.5 4 4.5
v -0.5 4 3.5
v 4.5 4 3.5
v -0.5 4 -9.5
v 4.5 4 -9.5
v -0.5 4 -10.5
v 4.5 4 -10.5
v -1.5 6 4.5
v -0.5 6 4.5
v -1.5 6 -10.5
v -0.5 6 -10.5

# faces
f 5/2/1 2/2/1 1/2/1
f 6/2/1 2/2/1 5/2/1
f 7/2/1 4/2/1 3/2/1
f 8/2/1 4/2/1 7/2/1
f 10/2/1 7/2/1 6/2/1
f 11/2/1 7/2/1 10/2/1
f 13/1/1 10/1/1 9/1/1
f 13/1/1 12/1/1 11/1/1
f 13/1/1 11/1/1 10/1/1
f 14/1/1 12/1/1 13/1/1
f 19/2/1 16/2/1 15/2/1
f 20/2/1 16/2/1 19/2/1
f 21/2/1 18/2/1 17/2/1
f 22/2/1 18/2/1 21/2/1
f 27/2/1 24/2/1 23/2/1
f 28/2/1 24/2/1 27/2/1
f 29/2/1 26/2/1 25/2/1
f 30/2/1 26/2/1 29/2/1
f 31/2/2 32/2/2 35/2/2
f 35/2/2 32/2/2 36/2/2
f 33/2/2 34/2/2 37/2/2
f 37/2/2 34/2/2 38/2/2
f 39/1/2 40/1/2 42/1/2
f 42/1/2 40/1/2 43/1/2
f 41/1/2 42/1/2 45/1/2
f 43/1/2 44/1/2 45/1/2
f 42/1/2 43/1/2 45/1/2
f 45/1/2 44/1/2 46/1/2
f 47/2/2 48/2/2 51/2/2
f 51/2/2 48/2/2 52/2/2
f 49/2/2 50/2/2 53/2/2
f 53/2/2 50/2/2 54/2/2
f 55/2/2 56/2/2 59/2/2
f 59/2/2 56/2/2 60/2/2
f 57/2/2 58/2/2 61/2/2
f 61/2/2 58/2/2 62/2/2
f 60/2/2 61/2/2 64/2/2
f 64/2/2 61/2/2 65/2/2
f 63/1/2 64/1/2 67/1/2
f 65/1/2 66/1/2 67/1/2
f 64/1/2 65/1/2 67/1/2
f 67/1/2 66/1/2 68/1/2
f 63/1/2 67/1/2 69/1/2
f 69/1/2 67/1/2 70/1/2
f 68/1/2 66/1/2 71/1/2
f 71/1/2 66/1/2 72/1/2
f 77/2/3 74/2/3 73/2/3
f 78/2/3 74/2/3 77/2/3
f 79/1/3 76/1/3 75/1/3
f 80/1/3 76/1/3 79/1/3
f 81/1/3 76/1/3 80/1/3
f 83/2/3 79/2/3 78/2/3
f 84/1/3 80/1/3 79/1/3
f 84/2/3 79/2/3 83/2/3
f 85/2/3 83/2/3 82/2/3
f 86/2/3 83/2/3 85/2/3
f 87/1/3 80/1/3 84/1/3
f 88/1/3 80/1/3 87/1/3
f 91/2/3 90/2/3 89/2/3
f 92/2/3 90/2/3 91/2/3
f 95/2/3 94/2/3 93/2/3
f 96/2/3 94/2/3 95/2/3
f 99/2/3 98/2/3 97/2/3
f 100/2/3 98/2/3 99/2/3
f 105/2/3 104/2/3 103/2/3
f 106/2/3 104/2/3 105/2/3
f 107/1/3 102/1/3 101/1/3
f 108/1/3 102/1/3 107/1/3
f 109/2/4 110/2/4 111/2/4
f 111/2/4 110/2/4 112/2/4
f 115/2/4 116/2/4 117/2/4
f 117/2/4 116/2/4 118/2/4
f 113/1/4 114/1/4 119/1/4
f 119/1/4 114/1/4 120/1/4
f 121/2/4 122/2/4 123/2/4
f 123/2/4 122/2/4 124/2/4
f 125/2/4 126/2/4 127/2/4
f 127/2/4 126/2/4 128/2/4
f 129/2/4 130/2/4 133/2/4
f 133/2/4 130/2/4 134/2/4
f 131/1/4 132/1/4 135/1/4
f 135/1/4 132/1/4 136/1/4
f 136/1/4 132/1/4 137/1/4
f 134/2/4 135/2/4 139/2/4
f 135/1/4 136/1/4 140/1/4
f 139/2/4 135/2/4 140/2/4
f 138/2/4 139/2/4 141/2/4
f 141/2/4 139/2/4 142/2/4
f 140/1/4 136/1/4 143/1/4
f 143/1/4 136/1/4 144/1/4
f 149/2/5 146/2/5 145/2/5
f 150/2/5 146/2/5 149/2/5
f 151/2/5 148/2/5 147/2/5
f 152/2/5 148/2/5 151/2/5
f 157/2/5 154/2/5 153/2/5
f 158/2/5 154/2/5 157/2/5
f 159/2/5 156/2/5 155/2/5
f 160/2/5 156/2/5 159/2/5
f 164/2/5 162/2/5 161/2/5
f 165/2/5 162/2/5 164/2/5
f 167/2/5 164/2/5 163/2/5
f 167/2/5 166/2/5 165/2/5
f 167/2/5 165/2/5 164/2/5
f 168/2/5 166/2/5 167/2/5
f 169/2/5 166/2/5 168/2/5
f 170/2/5 166/2/5 169/2/5
f 171/2/5 169/2/5 168/2/5
f 172/2/5 169/2/5 171/2/5
f 177/1/5 174/1/5 173/1/5
f 178/1/5 174/1/5 177/1/5
f 179/1/5 176/1/5 175/1/5
f 180/1/5 176/1/5 179/1/5
f 185/1/5 182/1/5 181/1/5
f 186/1/5 182/1/5 185/1/5
f 187/1/5 184/1/5 183/1/5
f 188/1/5 184/1/5 187/1/5
f 189/2/6 190/2/6 193/2/6
f 193/2/6 190/2/6 194/2/6
f 191/2/6 192/2/6 195/2/6
f 195/2/6 192/2/6 196/2/6
f 197/2/6 198/2/6 201/2/6
f 201/2/6 198/2/6 202/2/6
f 199/2/6 200/2/6 203/2/6
f 203/2/6 200/2/6 204/2/6
f 205/1/6 206/1/6 207/1/6
f 207/1/6 206/1/6 208/1/6
f 209/1/6 210/1/6 211/1/6
f 211/1/6 210/1/6 212/1/6
f 213/1/6 214/1/6 215/1/6
f 215/1/6 214/1/6 216/1/6
f 217/1/6 218/1/6 219/1/6
f 219/1/6 218/1/6 220/1/6
