# MagicaVoxel @ ephtracy

# material
mtllib HockeyBoards.mtl
usemtl palette

# normals
vn -1 0 0
vn 1 0 0
vn 0 0 1
vn 0 0 -1
vn 0 -1 0
vn 0 1 0

# texcoords
vt 0.0214844 0.5
vt 0.705078 0.5
vt 0.958984 0.5
vt 0.970703 0.5

# verts
v -11.5 0 -0.5
v -11.5 0 -2.5
v -11.5 4 -0.5
v -11.5 4 -2.5
v -11.5 6 -0.5
v -11.5 6 -2.5
v -11.5 24 -0.5
v -11.5 24 -2.5
v 5.5 0 -0.5
v 5.5 0 -2.5
v 5.5 4 -0.5
v 5.5 4 -2.5
v 5.5 6 -0.5
v 5.5 6 -2.5
v 5.5 24 -0.5
v 5.5 24 -2.5
v -11.5 0 -0.5
v -11.5 4 -0.5
v -11.5 6 -0.5
v -11.5 24 -0.5
v -9.5 8 -0.5
v -9.5 23 -0.5
v 3.5 8 -0.5
v 3.5 23 -0.5
v 5.5 0 -0.5
v 5.5 4 -0.5
v 5.5 6 -0.5
v 5.5 24 -0.5
v -11.5 0 -2.5
v -11.5 4 -2.5
v -11.5 6 -2.5
v -11.5 24 -2.5
v -9.5 8 -2.5
v -9.5 23 -2.5
v 3.5 8 -2.5
v 3.5 23 -2.5
v 5.5 0 -2.5
v 5.5 4 -2.5
v 5.5 6 -2.5
v 5.5 24 -2.5
v -11.5 0 -0.5
v 5.5 0 -0.5
v -11.5 0 -2.5
v 5.5 0 -2.5
v -11.5 24 -0.5
v 5.5 24 -0.5
v -11.5 24 -2.5
v 5.5 24 -2.5

# faces
f 3/1/1 2/1/1 1/1/1
f 4/1/1 2/1/1 3/1/1
f 5/3/1 4/3/1 3/3/1
f 6/3/1 4/3/1 5/3/1
f 7/4/1 6/4/1 5/4/1
f 8/4/1 6/4/1 7/4/1
f 9/1/2 10/1/2 11/1/2
f 11/1/2 10/1/2 12/1/2
f 11/3/2 12/3/2 13/3/2
f 13/3/2 12/3/2 14/3/2
f 13/4/2 14/4/2 15/4/2
f 15/4/2 14/4/2 16/4/2
f 21/4/3 20/4/3 19/4/3
f 22/4/3 20/4/3 21/4/3
f 23/4/3 21/4/3 19/4/3
f 23/2/3 22/2/3 21/2/3
f 24/4/3 20/4/3 22/4/3
f 24/2/3 22/2/3 23/2/3
f 25/1/3 18/1/3 17/1/3
f 26/3/3 19/3/3 18/3/3
f 26/1/3 18/1/3 25/1/3
f 27/4/3 23/4/3 19/4/3
f 27/3/3 19/3/3 26/3/3
f 27/4/3 24/4/3 23/4/3
f 28/4/3 20/4/3 24/4/3
f 28/4/3 24/4/3 27/4/3
f 31/4/4 32/4/4 33/4/4
f 33/4/4 32/4/4 34/4/4
f 31/4/4 33/4/4 35/4/4
f 33/3/4 34/3/4 35/3/4
f 34/4/4 32/4/4 36/4/4
f 35/3/4 34/3/4 36/3/4
f 29/1/4 30/1/4 37/1/4
f 30/3/4 31/3/4 38/3/4
f 37/1/4 30/1/4 38/1/4
f 31/4/4 35/4/4 39/4/4
f 38/3/4 31/3/4 39/3/4
f 35/4/4 36/4/4 39/4/4
f 36/4/4 32/4/4 40/4/4
f 39/4/4 36/4/4 40/4/4
f 43/1/5 42/1/5 41/1/5
f 44/1/5 42/1/5 43/1/5
f 45/4/6 46/4/6 47/4/6
f 47/4/6 46/4/6 48/4/6
