# MagicaVoxel @ ephtracy

# material
mtllib HockeyBoard side.mtl
usemtl palette

# normals
vn -1 0 0
vn 1 0 0
vn 0 0 1
vn 0 0 -1
vn 0 -1 0
vn 0 1 0

# texcoords
vt 0.0214844 0.5
vt 0.705078 0.5
vt 0.958984 0.5
vt 0.970703 0.5

# verts
v -11.5 0 12.5
v -11.5 0 10.5
v -11.5 4 12.5
v -11.5 4 10.5
v -11.5 6 12.5
v -11.5 6 10.5
v -11.5 26 12.5
v -11.5 26 10.5
v -9.5 0 10.5
v -9.5 0 9.5
v -9.5 4 10.5
v -9.5 4 9.5
v -9.5 6 10.5
v -9.5 6 9.5
v -9.5 8 10.5
v -9.5 8 9.5
v -9.5 24 10.5
v -9.5 24 9.5
v -9.5 26 10.5
v -9.5 26 9.5
v -7.5 0 9.5
v -7.5 0 8.5
v -7.5 4 9.5
v -7.5 4 8.5
v -7.5 6 9.5
v -7.5 6 8.5
v -7.5 8 9.5
v -7.5 8 8.5
v -7.5 24 9.5
v -7.5 24 8.5
v -7.5 26 9.5
v -7.5 26 8.5
v -5.5 0 8.5
v -5.5 0 7.5
v -5.5 4 8.5
v -5.5 4 7.5
v -5.5 6 8.5
v -5.5 6 7.5
v -5.5 8 8.5
v -5.5 8 7.5
v -5.5 24 8.5
v -5.5 24 7.5
v -5.5 26 8.5
v -5.5 26 7.5
v -4.5 0 7.5
v -4.5 0 6.5
v -4.5 4 7.5
v -4.5 4 6.5
v -4.5 6 7.5
v -4.5 6 6.5
v -4.5 8 7.5
v -4.5 8 6.5
v -4.5 24 7.5
v -4.5 24 6.5
v -4.5 26 7.5
v -4.5 26 6.5
v -3.5 0 6.5
v -3.5 0 5.5
v -3.5 4 6.5
v -3.5 4 5.5
v -3.5 6 6.5
v -3.5 6 5.5
v -3.5 8 6.5
v -3.5 8 5.5
v -3.5 24 6.5
v -3.5 24 5.5
v -3.5 26 6.5
v -3.5 26 5.5
v -2.5 0 5.5
v -2.5 0 4.5
v -2.5 4 5.5
v -2.5 4 4.5
v -2.5 6 5.5
v -2.5 6 4.5
v -2.5 8 5.5
v -2.5 8 4.5
v -2.5 24 5.5
v -2.5 24 4.5
v -2.5 26 5.5
v -2.5 26 4.5
v -1.5 0 4.5
v -1.5 0 3.5
v -1.5 4 4.5
v -1.5 4 3.5
v -1.5 6 4.5
v -1.5 6 3.5
v -1.5 8 4.5
v -1.5 8 3.5
v -1.5 24 4.5
v -1.5 24 3.5
v -1.5 24 2.5
v -1.5 26 4.5
v -1.5 26 2.5
v -0.5 0 3.5
v -0.5 0 2.5
v -0.5 4 3.5
v -0.5 4 2.5
v -0.5 6 3.5
v -0.5 6 2.5
v -0.5 8 3.5
v -0.5 8 2.5
v -0.5 24 3.5
v -0.5 24 2.5
v 0.5 0 2.5
v 0.5 0 1.5
v 0.5 4 2.5
v 0.5 4 1.5
v 0.5 6 2.5
v 0.5 6 1.5
v 0.5 8 2.5
v 0.5 8 1.5
v 0.5 24 2.5
v 0.5 24 1.5
v 0.5 26 2.5
v 0.5 26 1.5
v 1.5 0 1.5
v 1.5 0 -0.5
v 1.5 4 1.5
v 1.5 4 -0.5
v 1.5 6 1.5
v 1.5 6 -0.5
v 1.5 8 1.5
v 1.5 8 -0.5
v 1.5 24 1.5
v 1.5 24 -0.5
v 1.5 26 1.5
v 1.5 26 -0.5
v 2.5 0 -0.5
v 2.5 0 -2.5
v 2.5 4 -0.5
v 2.5 4 -2.5
v 2.5 6 -0.5
v 2.5 6 -2.5
v 2.5 8 -0.5
v 2.5 8 -2.5
v 2.5 24 -0.5
v 2.5 24 -2.5
v 2.5 26 -0.5
v 2.5 26 -2.5
v 3.5 0 -2.5
v 3.5 0 -4.5
v 3.5 4 -2.5
v 3.5 4 -4.5
v 3.5 6 -2.5
v 3.5 6 -4.5
v 3.5 8 -2.5
v 3.5 8 -3.5
v 3.5 24 -2.5
v 3.5 24 -3.5
v 3.5 26 -2.5
v 3.5 26 -4.5
v 5.5 0 12.5
v 5.5 0 -4.5
v 5.5 4 12.5
v 5.5 4 -4.5
v 5.5 6 12.5
v 5.5 6 -4.5
v 5.5 8 12.5
v 5.5 8 -3.5
v 5.5 24 12.5
v 5.5 24 -3.5
v 5.5 26 12.5
v 5.5 26 -4.5
v -11.5 0 12.5
v -11.5 4 12.5
v -11.5 6 12.5
v -11.5 26 12.5
v -10.5 8 12.5
v -10.5 24 12.5
v 5.5 0 12.5
v 5.5 4 12.5
v 5.5 6 12.5
v 5.5 8 12.5
v 5.5 24 12.5
v 5.5 26 12.5
v -11.5 0 10.5
v -11.5 4 10.5
v -11.5 6 10.5
v -11.5 26 10.5
v -10.5 8 10.5
v -10.5 24 10.5
v -9.5 0 10.5
v -9.5 4 10.5
v -9.5 6 10.5
v -9.5 8 10.5
v -9.5 24 10.5
v -9.5 26 10.5
v -9.5 0 9.5
v -9.5 4 9.5
v -9.5 6 9.5
v -9.5 8 9.5
v -9.5 24 9.5
v -9.5 26 9.5
v -7.5 0 9.5
v -7.5 4 9.5
v -7.5 6 9.5
v -7.5 8 9.5
v -7.5 24 9.5
v -7.5 26 9.5
v -7.5 0 8.5
v -7.5 4 8.5
v -7.5 6 8.5
v -7.5 8 8.5
v -7.5 24 8.5
v -7.5 26 8.5
v -5.5 0 8.5
v -5.5 4 8.5
v -5.5 6 8.5
v -5.5 8 8.5
v -5.5 24 8.5
v -5.5 26 8.5
v -5.5 0 7.5
v -5.5 4 7.5
v -5.5 6 7.5
v -5.5 8 7.5
v -5.5 24 7.5
v -5.5 26 7.5
v -4.5 0 7.5
v -4.5 4 7.5
v -4.5 6 7.5
v -4.5 8 7.5
v -4.5 24 7.5
v -4.5 26 7.5
v -4.5 0 6.5
v -4.5 4 6.5
v -4.5 6 6.5
v -4.5 8 6.5
v -4.5 24 6.5
v -4.5 26 6.5
v -3.5 0 6.5
v -3.5 4 6.5
v -3.5 6 6.5
v -3.5 8 6.5
v -3.5 24 6.5
v -3.5 26 6.5
v -3.5 0 5.5
v -3.5 4 5.5
v -3.5 6 5.5
v -3.5 8 5.5
v -3.5 24 5.5
v -3.5 26 5.5
v -2.5 0 5.5
v -2.5 4 5.5
v -2.5 6 5.5
v -2.5 8 5.5
v -2.5 24 5.5
v -2.5 26 5.5
v -2.5 0 4.5
v -2.5 4 4.5
v -2.5 6 4.5
v -2.5 8 4.5
v -2.5 24 4.5
v -2.5 26 4.5
v -1.5 0 4.5
v -1.5 4 4.5
v -1.5 6 4.5
v -1.5 8 4.5
v -1.5 24 4.5
v -1.5 26 4.5
v -1.5 0 3.5
v -1.5 4 3.5
v -1.5 6 3.5
v -1.5 8 3.5
v -1.5 24 3.5
v -0.5 0 3.5
v -0.5 4 3.5
v -0.5 6 3.5
v -0.5 8 3.5
v -0.5 24 3.5
v -1.5 24 2.5
v -1.5 26 2.5
v -0.5 0 2.5
v -0.5 4 2.5
v -0.5 6 2.5
v -0.5 8 2.5
v -0.5 24 2.5
v 0.5 0 2.5
v 0.5 4 2.5
v 0.5 6 2.5
v 0.5 8 2.5
v 0.5 24 2.5
v 0.5 26 2.5
v 0.5 0 1.5
v 0.5 4 1.5
v 0.5 6 1.5
v 0.5 8 1.5
v 0.5 24 1.5
v 0.5 26 1.5
v 1.5 0 1.5
v 1.5 4 1.5
v 1.5 6 1.5
v 1.5 8 1.5
v 1.5 24 1.5
v 1.5 26 1.5
v 1.5 0 -0.5
v 1.5 4 -0.5
v 1.5 6 -0.5
v 1.5 8 -0.5
v 1.5 24 -0.5
v 1.5 26 -0.5
v 2.5 0 -0.5
v 2.5 4 -0.5
v 2.5 6 -0.5
v 2.5 8 -0.5
v 2.5 24 -0.5
v 2.5 26 -0.5
v 2.5 0 -2.5
v 2.5 4 -2.5
v 2.5 6 -2.5
v 2.5 8 -2.5
v 2.5 24 -2.5
v 2.5 26 -2.5
v 3.5 0 -2.5
v 3.5 4 -2.5
v 3.5 6 -2.5
v 3.5 8 -2.5
v 3.5 24 -2.5
v 3.5 26 -2.5
v 3.5 0 -4.5
v 3.5 4 -4.5
v 3.5 6 -4.5
v 3.5 26 -4.5
v 5.5 0 -4.5
v 5.5 4 -4.5
v 5.5 6 -4.5
v 5.5 26 -4.5
v -11.5 0 12.5
v 5.5 0 12.5
v -11.5 0 10.5
v -9.5 0 10.5
v -9.5 0 9.5
v -7.5 0 9.5
v -7.5 0 8.5
v -5.5 0 8.5
v -5.5 0 7.5
v -4.5 0 7.5
v -4.5 0 6.5
v -3.5 0 6.5
v -3.5 0 5.5
v -2.5 0 5.5
v -2.5 0 4.5
v -1.5 0 4.5
v -1.5 0 3.5
v -0.5 0 3.5
v -0.5 0 2.5
v 0.5 0 2.5
v 0.5 0 1.5
v 1.5 0 1.5
v 1.5 0 -0.5
v 2.5 0 -0.5
v 2.5 0 -2.5
v 3.5 0 -2.5
v 3.5 0 -4.5
v 5.5 0 -4.5
v -1.5 24 3.5
v -0.5 24 3.5
v -1.5 24 2.5
v -0.5 24 2.5
v -11.5 26 12.5
v 5.5 26 12.5
v -11.5 26 10.5
v -9.5 26 10.5
v -9.5 26 9.5
v -7.5 26 9.5
v -7.5 26 8.5
v -5.5 26 8.5
v -5.5 26 7.5
v -4.5 26 7.5
v -4.5 26 6.5
v -3.5 26 6.5
v -3.5 26 5.5
v -2.5 26 5.5
v -2.5 26 4.5
v -1.5 26 4.5
v -1.5 26 2.5
v 0.5 26 2.5
v 0.5 26 1.5
v 1.5 26 1.5
v 1.5 26 -0.5
v 2.5 26 -0.5
v 2.5 26 -2.5
v 3.5 26 -2.5
v 3.5 26 -4.5
v 5.5 26 -4.5

# faces
f 3/1/1 2/1/1 1/1/1
f 4/1/1 2/1/1 3/1/1
f 5/3/1 4/3/1 3/3/1
f 6/3/1 4/3/1 5/3/1
f 7/4/1 6/4/1 5/4/1
f 8/4/1 6/4/1 7/4/1
f 11/1/1 10/1/1 9/1/1
f 12/1/1 10/1/1 11/1/1
f 13/3/1 12/3/1 11/3/1
f 14/3/1 12/3/1 13/3/1
f 15/4/1 14/4/1 13/4/1
f 16/4/1 14/4/1 15/4/1
f 17/2/1 16/2/1 15/2/1
f 18/2/1 16/2/1 17/2/1
f 19/4/1 18/4/1 17/4/1
f 20/4/1 18/4/1 19/4/1
f 23/1/1 22/1/1 21/1/1
f 24/1/1 22/1/1 23/1/1
f 25/3/1 24/3/1 23/3/1
f 26/3/1 24/3/1 25/3/1
f 27/4/1 26/4/1 25/4/1
f 28/4/1 26/4/1 27/4/1
f 29/2/1 28/2/1 27/2/1
f 30/2/1 28/2/1 29/2/1
f 31/4/1 30/4/1 29/4/1
f 32/4/1 30/4/1 31/4/1
f 35/1/1 34/1/1 33/1/1
f 36/1/1 34/1/1 35/1/1
f 37/3/1 36/3/1 35/3/1
f 38/3/1 36/3/1 37/3/1
f 39/4/1 38/4/1 37/4/1
f 40/4/1 38/4/1 39/4/1
f 41/2/1 40/2/1 39/2/1
f 42/2/1 40/2/1 41/2/1
f 43/4/1 42/4/1 41/4/1
f 44/4/1 42/4/1 43/4/1
f 47/1/1 46/1/1 45/1/1
f 48/1/1 46/1/1 47/1/1
f 49/3/1 48/3/1 47/3/1
f 50/3/1 48/3/1 49/3/1
f 51/4/1 50/4/1 49/4/1
f 52/4/1 50/4/1 51/4/1
f 53/2/1 52/2/1 51/2/1
f 54/2/1 52/2/1 53/2/1
f 55/4/1 54/4/1 53/4/1
f 56/4/1 54/4/1 55/4/1
f 59/1/1 58/1/1 57/1/1
f 60/1/1 58/1/1 59/1/1
f 61/3/1 60/3/1 59/3/1
f 62/3/1 60/3/1 61/3/1
f 63/4/1 62/4/1 61/4/1
f 64/4/1 62/4/1 63/4/1
f 65/2/1 64/2/1 63/2/1
f 66/2/1 64/2/1 65/2/1
f 67/4/1 66/4/1 65/4/1
f 68/4/1 66/4/1 67/4/1
f 71/1/1 70/1/1 69/1/1
f 72/1/1 70/1/1 71/1/1
f 73/3/1 72/3/1 71/3/1
f 74/3/1 72/3/1 73/3/1
f 75/4/1 74/4/1 73/4/1
f 76/4/1 74/4/1 75/4/1
f 77/2/1 76/2/1 75/2/1
f 78/2/1 76/2/1 77/2/1
f 79/4/1 78/4/1 77/4/1
f 80/4/1 78/4/1 79/4/1
f 83/1/1 82/1/1 81/1/1
f 84/1/1 82/1/1 83/1/1
f 85/3/1 84/3/1 83/3/1
f 86/3/1 84/3/1 85/3/1
f 87/4/1 86/4/1 85/4/1
f 88/4/1 86/4/1 87/4/1
f 89/2/1 88/2/1 87/2/1
f 90/2/1 88/2/1 89/2/1
f 92/4/1 90/4/1 89/4/1
f 92/4/1 91/4/1 90/4/1
f 93/4/1 91/4/1 92/4/1
f 96/1/1 95/1/1 94/1/1
f 97/1/1 95/1/1 96/1/1
f 98/3/1 97/3/1 96/3/1
f 99/3/1 97/3/1 98/3/1
f 100/4/1 99/4/1 98/4/1
f 101/4/1 99/4/1 100/4/1
f 102/2/1 101/2/1 100/2/1
f 103/2/1 101/2/1 102/2/1
f 106/1/1 105/1/1 104/1/1
f 107/1/1 105/1/1 106/1/1
f 108/3/1 107/3/1 106/3/1
f 109/3/1 107/3/1 108/3/1
f 110/4/1 109/4/1 108/4/1
f 111/4/1 109/4/1 110/4/1
f 112/2/1 111/2/1 110/2/1
f 113/2/1 111/2/1 112/2/1
f 114/4/1 113/4/1 112/4/1
f 115/4/1 113/4/1 114/4/1
f 118/1/1 117/1/1 116/1/1
f 119/1/1 117/1/1 118/1/1
f 120/3/1 119/3/1 118/3/1
f 121/3/1 119/3/1 120/3/1
f 122/4/1 121/4/1 120/4/1
f 123/4/1 121/4/1 122/4/1
f 124/2/1 123/2/1 122/2/1
f 125/2/1 123/2/1 124/2/1
f 126/4/1 125/4/1 124/4/1
f 127/4/1 125/4/1 126/4/1
f 130/1/1 129/1/1 128/1/1
f 131/1/1 129/1/1 130/1/1
f 132/3/1 131/3/1 130/3/1
f 133/3/1 131/3/1 132/3/1
f 134/4/1 133/4/1 132/4/1
f 135/4/1 133/4/1 134/4/1
f 136/2/1 135/2/1 134/2/1
f 137/2/1 135/2/1 136/2/1
f 138/4/1 137/4/1 136/4/1
f 139/4/1 137/4/1 138/4/1
f 142/1/1 141/1/1 140/1/1
f 143/1/1 141/1/1 142/1/1
f 144/3/1 143/3/1 142/3/1
f 145/3/1 143/3/1 144/3/1
f 146/4/1 145/4/1 144/4/1
f 147/4/1 145/4/1 146/4/1
f 148/2/1 147/2/1 146/2/1
f 149/4/1 145/4/1 147/4/1
f 149/2/1 147/2/1 148/2/1
f 150/4/1 149/4/1 148/4/1
f 151/4/1 145/4/1 149/4/1
f 151/4/1 149/4/1 150/4/1
f 152/1/2 153/1/2 154/1/2
f 154/1/2 153/1/2 155/1/2
f 154/3/2 155/3/2 156/3/2
f 156/3/2 155/3/2 157/3/2
f 156/4/2 157/4/2 158/4/2
f 158/4/2 157/4/2 159/4/2
f 158/2/2 159/2/2 160/2/2
f 159/4/2 157/4/2 161/4/2
f 160/2/2 159/2/2 161/2/2
f 160/4/2 161/4/2 162/4/2
f 161/4/2 157/4/2 163/4/2
f 162/4/2 161/4/2 163/4/2
f 168/4/3 167/4/3 166/4/3
f 169/4/3 167/4/3 168/4/3
f 170/1/3 165/1/3 164/1/3
f 171/3/3 166/3/3 165/3/3
f 171/1/3 165/1/3 170/1/3
f 172/4/3 168/4/3 166/4/3
f 172/3/3 166/3/3 171/3/3
f 173/2/3 169/2/3 168/2/3
f 173/4/3 168/4/3 172/4/3
f 174/4/3 167/4/3 169/4/3
f 174/2/3 169/2/3 173/2/3
f 175/4/3 167/4/3 174/4/3
f 178/4/4 179/4/4 180/4/4
f 180/4/4 179/4/4 181/4/4
f 176/1/4 177/1/4 182/1/4
f 177/3/4 178/3/4 183/3/4
f 182/1/4 177/1/4 183/1/4
f 178/4/4 180/4/4 184/4/4
f 183/3/4 178/3/4 184/3/4
f 180/2/4 181/2/4 185/2/4
f 184/4/4 180/4/4 185/4/4
f 181/4/4 179/4/4 186/4/4
f 185/2/4 181/2/4 186/2/4
f 186/4/4 179/4/4 187/4/4
f 188/1/4 189/1/4 194/1/4
f 189/3/4 190/3/4 195/3/4
f 194/1/4 189/1/4 195/1/4
f 190/4/4 191/4/4 196/4/4
f 195/3/4 190/3/4 196/3/4
f 191/2/4 192/2/4 197/2/4
f 196/4/4 191/4/4 197/4/4
f 192/4/4 193/4/4 198/4/4
f 197/2/4 192/2/4 198/2/4
f 198/4/4 193/4/4 199/4/4
f 200/1/4 201/1/4 206/1/4
f 201/3/4 202/3/4 207/3/4
f 206/1/4 201/1/4 207/1/4
f 202/4/4 203/4/4 208/4/4
f 207/3/4 202/3/4 208/3/4
f 203/2/4 204/2/4 209/2/4
f 208/4/4 203/4/4 209/4/4
f 204/4/4 205/4/4 210/4/4
f 209/2/4 204/2/4 210/2/4
f 210/4/4 205/4/4 211/4/4
f 212/1/4 213/1/4 218/1/4
f 213/3/4 214/3/4 219/3/4
f 218/1/4 213/1/4 219/1/4
f 214/4/4 215/4/4 220/4/4
f 219/3/4 214/3/4 220/3/4
f 215/2/4 216/2/4 221/2/4
f 220/4/4 215/4/4 221/4/4
f 216/4/4 217/4/4 222/4/4
f 221/2/4 216/2/4 222/2/4
f 222/4/4 217/4/4 223/4/4
f 224/1/4 225/1/4 230/1/4
f 225/3/4 226/3/4 231/3/4
f 230/1/4 225/1/4 231/1/4
f 226/4/4 227/4/4 232/4/4
f 231/3/4 226/3/4 232/3/4
f 227/2/4 228/2/4 233/2/4
f 232/4/4 227/4/4 233/4/4
f 228/4/4 229/4/4 234/4/4
f 233/2/4 228/2/4 234/2/4
f 234/4/4 229/4/4 235/4/4
f 236/1/4 237/1/4 242/1/4
f 237/3/4 238/3/4 243/3/4
f 242/1/4 237/1/4 243/1/4
f 238/4/4 239/4/4 244/4/4
f 243/3/4 238/3/4 244/3/4
f 239/2/4 240/2/4 245/2/4
f 244/4/4 239/4/4 245/4/4
f 240/4/4 241/4/4 246/4/4
f 245/2/4 240/2/4 246/2/4
f 246/4/4 241/4/4 247/4/4
f 248/1/4 249/1/4 254/1/4
f 249/3/4 250/3/4 255/3/4
f 254/1/4 249/1/4 255/1/4
f 250/4/4 251/4/4 256/4/4
f 255/3/4 250/3/4 256/3/4
f 251/2/4 252/2/4 257/2/4
f 256/4/4 251/4/4 257/4/4
f 252/4/4 253/4/4 258/4/4
f 257/2/4 252/2/4 258/2/4
f 258/4/4 253/4/4 259/4/4
f 260/1/4 261/1/4 265/1/4
f 261/3/4 262/3/4 266/3/4
f 265/1/4 261/1/4 266/1/4
f 262/4/4 263/4/4 267/4/4
f 266/3/4 262/3/4 267/3/4
f 263/2/4 264/2/4 268/2/4
f 267/4/4 263/4/4 268/4/4
f 268/2/4 264/2/4 269/2/4
f 270/4/4 271/4/4 276/4/4
f 272/1/4 273/1/4 277/1/4
f 273/3/4 274/3/4 278/3/4
f 277/1/4 273/1/4 278/1/4
f 274/4/4 275/4/4 279/4/4
f 278/3/4 274/3/4 279/3/4
f 275/2/4 276/2/4 280/2/4
f 279/4/4 275/4/4 280/4/4
f 276/4/4 271/4/4 281/4/4
f 280/2/4 276/2/4 281/2/4
f 281/4/4 271/4/4 282/4/4
f 283/1/4 284/1/4 289/1/4
f 284/3/4 285/3/4 290/3/4
f 289/1/4 284/1/4 290/1/4
f 285/4/4 286/4/4 291/4/4
f 290/3/4 285/3/4 291/3/4
f 286/2/4 287/2/4 292/2/4
f 291/4/4 286/4/4 292/4/4
f 287/4/4 288/4/4 293/4/4
f 292/2/4 287/2/4 293/2/4
f 293/4/4 288/4/4 294/4/4
f 295/1/4 296/1/4 301/1/4
f 296/3/4 297/3/4 302/3/4
f 301/1/4 296/1/4 302/1/4
f 297/4/4 298/4/4 303/4/4
f 302/3/4 297/3/4 303/3/4
f 298/2/4 299/2/4 304/2/4
f 303/4/4 298/4/4 304/4/4
f 299/4/4 300/4/4 305/4/4
f 304/2/4 299/2/4 305/2/4
f 305/4/4 300/4/4 306/4/4
f 307/1/4 308/1/4 313/1/4
f 308/3/4 309/3/4 314/3/4
f 313/1/4 308/1/4 314/1/4
f 309/4/4 310/4/4 315/4/4
f 314/3/4 309/3/4 315/3/4
f 310/2/4 311/2/4 316/2/4
f 315/4/4 310/4/4 316/4/4
f 311/4/4 312/4/4 317/4/4
f 316/2/4 311/2/4 317/2/4
f 317/4/4 312/4/4 318/4/4
f 319/1/4 320/1/4 323/1/4
f 320/3/4 321/3/4 324/3/4
f 323/1/4 320/1/4 324/1/4
f 321/4/4 322/4/4 325/4/4
f 324/3/4 321/3/4 325/3/4
f 325/4/4 322/4/4 326/4/4
f 329/1/5 328/1/5 327/1/5
f 330/1/5 328/1/5 329/1/5
f 331/1/5 328/1/5 330/1/5
f 332/1/5 328/1/5 331/1/5
f 333/1/5 328/1/5 332/1/5
f 334/1/5 328/1/5 333/1/5
f 335/1/5 328/1/5 334/1/5
f 336/1/5 328/1/5 335/1/5
f 337/1/5 328/1/5 336/1/5
f 338/1/5 328/1/5 337/1/5
f 339/1/5 328/1/5 338/1/5
f 340/1/5 328/1/5 339/1/5
f 341/1/5 328/1/5 340/1/5
f 342/1/5 328/1/5 341/1/5
f 343/1/5 328/1/5 342/1/5
f 344/1/5 328/1/5 343/1/5
f 345/1/5 328/1/5 344/1/5
f 346/1/5 328/1/5 345/1/5
f 347/1/5 328/1/5 346/1/5
f 348/1/5 328/1/5 347/1/5
f 349/1/5 328/1/5 348/1/5
f 350/1/5 328/1/5 349/1/5
f 351/1/5 328/1/5 350/1/5
f 352/1/5 328/1/5 351/1/5
f 353/1/5 328/1/5 352/1/5
f 354/1/5 328/1/5 353/1/5
f 357/4/5 356/4/5 355/4/5
f 358/4/5 356/4/5 357/4/5
f 359/4/6 360/4/6 361/4/6
f 361/4/6 360/4/6 362/4/6
f 362/4/6 360/4/6 363/4/6
f 363/4/6 360/4/6 364/4/6
f 364/4/6 360/4/6 365/4/6
f 365/4/6 360/4/6 366/4/6
f 366/4/6 360/4/6 367/4/6
f 367/4/6 360/4/6 368/4/6
f 368/4/6 360/4/6 369/4/6
f 369/4/6 360/4/6 370/4/6
f 370/4/6 360/4/6 371/4/6
f 371/4/6 360/4/6 372/4/6
f 372/4/6 360/4/6 373/4/6
f 373/4/6 360/4/6 374/4/6
f 374/4/6 360/4/6 375/4/6
f 375/4/6 360/4/6 376/4/6
f 376/4/6 360/4/6 377/4/6
f 377/4/6 360/4/6 378/4/6
f 378/4/6 360/4/6 379/4/6
f 379/4/6 360/4/6 380/4/6
f 380/4/6 360/4/6 381/4/6
f 381/4/6 360/4/6 382/4/6
f 382/4/6 360/4/6 383/4/6
f 383/4/6 360/4/6 384/4/6
