# MagicaVoxel @ ephtracy

# material
mtllib HockeyBoard side.mtl
usemtl palette

# normals
vn -1 0 0
vn 1 0 0
vn 0 0 1
vn 0 0 -1
vn 0 -1 0
vn 0 1 0

# texcoords
vt 0.0214844 0.5
vt 0.705078 0.5
vt 0.958984 0.5
vt 0.970703 0.5

# verts
v -7.5 0 1.5
v -7.5 0 -8.5
v -7.5 3 1.5
v -7.5 3 -8.5
v -7.5 5 1.5
v -7.5 5 -8.5
v -7.5 7 1.5
v -7.5 7 -6.5
v -7.5 22 1.5
v -7.5 22 -6.5
v -7.5 24 1.5
v -7.5 24 -8.5
v -6.5 0 -6.5
v -6.5 0 -8.5
v -6.5 3 -6.5
v -6.5 3 -8.5
v -6.5 5 -6.5
v -6.5 5 -8.5
v -6.5 7 -6.5
v -6.5 22 -6.5
v -6.5 24 -6.5
v -6.5 24 -8.5
v -5.5 0 -5.5
v -5.5 0 -6.5
v -5.5 3 -5.5
v -5.5 3 -6.5
v -5.5 5 -5.5
v -5.5 5 -6.5
v -5.5 7 -5.5
v -5.5 7 -6.5
v -5.5 22 -5.5
v -5.5 22 -6.5
v -5.5 24 -5.5
v -5.5 24 -6.5
v -4.5 0 -4.5
v -4.5 0 -5.5
v -4.5 3 -4.5
v -4.5 3 -5.5
v -4.5 5 -4.5
v -4.5 5 -5.5
v -4.5 7 -4.5
v -4.5 7 -5.5
v -4.5 22 -4.5
v -4.5 22 -5.5
v -4.5 24 -4.5
v -4.5 24 -5.5
v -3.5 0 -3.5
v -3.5 0 -4.5
v -3.5 3 -3.5
v -3.5 3 -4.5
v -3.5 5 -3.5
v -3.5 5 -4.5
v -3.5 7 -3.5
v -3.5 7 -4.5
v -3.5 22 -3.5
v -3.5 22 -4.5
v -3.5 24 -3.5
v -3.5 24 -4.5
v -2.5 0 -2.5
v -2.5 0 -3.5
v -2.5 3 -2.5
v -2.5 3 -3.5
v -2.5 5 -2.5
v -2.5 5 -3.5
v -2.5 7 -2.5
v -2.5 7 -3.5
v -2.5 22 -2.5
v -2.5 22 -3.5
v -2.5 24 -2.5
v -2.5 24 -3.5
v -1.5 0 -1.5
v -1.5 0 -2.5
v -1.5 3 -1.5
v -1.5 3 -2.5
v -1.5 5 -1.5
v -1.5 5 -2.5
v -1.5 7 -1.5
v -1.5 7 -2.5
v -1.5 22 -1.5
v -1.5 22 -2.5
v -1.5 24 -1.5
v -1.5 24 -2.5
v -0.5 0 -0.5
v -0.5 0 -1.5
v -0.5 3 -0.5
v -0.5 3 -1.5
v -0.5 5 -0.5
v -0.5 5 -1.5
v -0.5 7 -0.5
v -0.5 7 -1.5
v -0.5 22 -0.5
v -0.5 22 -1.5
v -0.5 24 -0.5
v -0.5 24 -1.5
v 0.5 0 0.5
v 0.5 0 -0.5
v 0.5 3 0.5
v 0.5 3 -0.5
v 0.5 5 0.5
v 0.5 5 -0.5
v 0.5 7 0.5
v 0.5 7 -0.5
v 0.5 22 0.5
v 0.5 22 -0.5
v 0.5 24 0.5
v 0.5 24 -0.5
v 2.5 0 1.5
v 2.5 0 0.5
v 2.5 3 1.5
v 2.5 3 0.5
v 2.5 5 1.5
v 2.5 5 0.5
v 2.5 24 1.5
v 2.5 24 0.5
v -7.5 0 1.5
v -7.5 3 1.5
v -7.5 5 1.5
v -7.5 7 1.5
v -7.5 22 1.5
v -7.5 24 1.5
v 0.5 7 1.5
v 0.5 22 1.5
v 2.5 0 1.5
v 2.5 3 1.5
v 2.5 5 1.5
v 2.5 24 1.5
v 0.5 0 0.5
v 0.5 3 0.5
v 0.5 5 0.5
v 0.5 7 0.5
v 0.5 22 0.5
v 0.5 24 0.5
v 2.5 0 0.5
v 2.5 3 0.5
v 2.5 5 0.5
v 2.5 24 0.5
v -0.5 0 -0.5
v -0.5 3 -0.5
v -0.5 5 -0.5
v -0.5 7 -0.5
v -0.5 22 -0.5
v -0.5 24 -0.5
v 0.5 0 -0.5
v 0.5 3 -0.5
v 0.5 5 -0.5
v 0.5 7 -0.5
v 0.5 22 -0.5
v 0.5 24 -0.5
v -1.5 0 -1.5
v -1.5 3 -1.5
v -1.5 5 -1.5
v -1.5 7 -1.5
v -1.5 22 -1.5
v -1.5 24 -1.5
v -0.5 0 -1.5
v -0.5 3 -1.5
v -0.5 5 -1.5
v -0.5 7 -1.5
v -0.5 22 -1.5
v -0.5 24 -1.5
v -2.5 0 -2.5
v -2.5 3 -2.5
v -2.5 5 -2.5
v -2.5 7 -2.5
v -2.5 22 -2.5
v -2.5 24 -2.5
v -1.5 0 -2.5
v -1.5 3 -2.5
v -1.5 5 -2.5
v -1.5 7 -2.5
v -1.5 22 -2.5
v -1.5 24 -2.5
v -3.5 0 -3.5
v -3.5 3 -3.5
v -3.5 5 -3.5
v -3.5 7 -3.5
v -3.5 22 -3.5
v -3.5 24 -3.5
v -2.5 0 -3.5
v -2.5 3 -3.5
v -2.5 5 -3.5
v -2.5 7 -3.5
v -2.5 22 -3.5
v -2.5 24 -3.5
v -4.5 0 -4.5
v -4.5 3 -4.5
v -4.5 5 -4.5
v -4.5 7 -4.5
v -4.5 22 -4.5
v -4.5 24 -4.5
v -3.5 0 -4.5
v -3.5 3 -4.5
v -3.5 5 -4.5
v -3.5 7 -4.5
v -3.5 22 -4.5
v -3.5 24 -4.5
v -5.5 0 -5.5
v -5.5 3 -5.5
v -5.5 5 -5.5
v -5.5 7 -5.5
v -5.5 22 -5.5
v -5.5 24 -5.5
v -4.5 0 -5.5
v -4.5 3 -5.5
v -4.5 5 -5.5
v -4.5 7 -5.5
v -4.5 22 -5.5
v -4.5 24 -5.5
v -6.5 0 -6.5
v -6.5 3 -6.5
v -6.5 5 -6.5
v -6.5 7 -6.5
v -6.5 22 -6.5
v -6.5 24 -6.5
v -5.5 0 -6.5
v -5.5 3 -6.5
v -5.5 5 -6.5
v -5.5 7 -6.5
v -5.5 22 -6.5
v -5.5 24 -6.5
v -7.5 0 -8.5
v -7.5 3 -8.5
v -7.5 5 -8.5
v -7.5 24 -8.5
v -6.5 0 -8.5
v -6.5 3 -8.5
v -6.5 5 -8.5
v -6.5 24 -8.5
v -7.5 0 1.5
v 2.5 0 1.5
v 0.5 0 0.5
v 2.5 0 0.5
v -0.5 0 -0.5
v 0.5 0 -0.5
v -1.5 0 -1.5
v -0.5 0 -1.5
v -2.5 0 -2.5
v -1.5 0 -2.5
v -3.5 0 -3.5
v -2.5 0 -3.5
v -4.5 0 -4.5
v -3.5 0 -4.5
v -5.5 0 -5.5
v -4.5 0 -5.5
v -6.5 0 -6.5
v -5.5 0 -6.5
v -7.5 0 -8.5
v -6.5 0 -8.5
v -7.5 24 1.5
v 2.5 24 1.5
v 0.5 24 0.5
v 2.5 24 0.5
v -0.5 24 -0.5
v 0.5 24 -0.5
v -1.5 24 -1.5
v -0.5 24 -1.5
v -2.5 24 -2.5
v -1.5 24 -2.5
v -3.5 24 -3.5
v -2.5 24 -3.5
v -4.5 24 -4.5
v -3.5 24 -4.5
v -5.5 24 -5.5
v -4.5 24 -5.5
v -6.5 24 -6.5
v -5.5 24 -6.5
v -7.5 24 -8.5
v -6.5 24 -8.5

# faces
f 3/1/1 2/1/1 1/1/1
f 4/1/1 2/1/1 3/1/1
f 5/3/1 4/3/1 3/3/1
f 6/3/1 4/3/1 5/3/1
f 7/4/1 6/4/1 5/4/1
f 8/4/1 6/4/1 7/4/1
f 9/2/1 8/2/1 7/2/1
f 10/4/1 6/4/1 8/4/1
f 10/2/1 8/2/1 9/2/1
f 11/4/1 10/4/1 9/4/1
f 12/4/1 6/4/1 10/4/1
f 12/4/1 10/4/1 11/4/1
f 13/1/2 14/1/2 15/1/2
f 15/1/2 14/1/2 16/1/2
f 15/3/2 16/3/2 17/3/2
f 17/3/2 16/3/2 18/3/2
f 17/4/2 18/4/2 19/4/2
f 19/4/2 18/4/2 20/4/2
f 20/4/2 18/4/2 21/4/2
f 21/4/2 18/4/2 22/4/2
f 23/1/2 24/1/2 25/1/2
f 25/1/2 24/1/2 26/1/2
f 25/3/2 26/3/2 27/3/2
f 27/3/2 26/3/2 28/3/2
f 27/4/2 28/4/2 29/4/2
f 29/4/2 28/4/2 30/4/2
f 29/2/2 30/2/2 31/2/2
f 31/2/2 30/2/2 32/2/2
f 31/4/2 32/4/2 33/4/2
f 33/4/2 32/4/2 34/4/2
f 35/1/2 36/1/2 37/1/2
f 37/1/2 36/1/2 38/1/2
f 37/3/2 38/3/2 39/3/2
f 39/3/2 38/3/2 40/3/2
f 39/4/2 40/4/2 41/4/2
f 41/4/2 40/4/2 42/4/2
f 41/2/2 42/2/2 43/2/2
f 43/2/2 42/2/2 44/2/2
f 43/4/2 44/4/2 45/4/2
f 45/4/2 44/4/2 46/4/2
f 47/1/2 48/1/2 49/1/2
f 49/1/2 48/1/2 50/1/2
f 49/3/2 50/3/2 51/3/2
f 51/3/2 50/3/2 52/3/2
f 51/4/2 52/4/2 53/4/2
f 53/4/2 52/4/2 54/4/2
f 53/2/2 54/2/2 55/2/2
f 55/2/2 54/2/2 56/2/2
f 55/4/2 56/4/2 57/4/2
f 57/4/2 56/4/2 58/4/2
f 59/1/2 60/1/2 61/1/2
f 61/1/2 60/1/2 62/1/2
f 61/3/2 62/3/2 63/3/2
f 63/3/2 62/3/2 64/3/2
f 63/4/2 64/4/2 65/4/2
f 65/4/2 64/4/2 66/4/2
f 65/2/2 66/2/2 67/2/2
f 67/2/2 66/2/2 68/2/2
f 67/4/2 68/4/2 69/4/2
f 69/4/2 68/4/2 70/4/2
f 71/1/2 72/1/2 73/1/2
f 73/1/2 72/1/2 74/1/2
f 73/3/2 74/3/2 75/3/2
f 75/3/2 74/3/2 76/3/2
f 75/4/2 76/4/2 77/4/2
f 77/4/2 76/4/2 78/4/2
f 77/2/2 78/2/2 79/2/2
f 79/2/2 78/2/2 80/2/2
f 79/4/2 80/4/2 81/4/2
f 81/4/2 80/4/2 82/4/2
f 83/1/2 84/1/2 85/1/2
f 85/1/2 84/1/2 86/1/2
f 85/3/2 86/3/2 87/3/2
f 87/3/2 86/3/2 88/3/2
f 87/4/2 88/4/2 89/4/2
f 89/4/2 88/4/2 90/4/2
f 89/2/2 90/2/2 91/2/2
f 91/2/2 90/2/2 92/2/2
f 91/4/2 92/4/2 93/4/2
f 93/4/2 92/4/2 94/4/2
f 95/1/2 96/1/2 97/1/2
f 97/1/2 96/1/2 98/1/2
f 97/3/2 98/3/2 99/3/2
f 99/3/2 98/3/2 100/3/2
f 99/4/2 100/4/2 101/4/2
f 101/4/2 100/4/2 102/4/2
f 101/2/2 102/2/2 103/2/2
f 103/2/2 102/2/2 104/2/2
f 103/4/2 104/4/2 105/4/2
f 105/4/2 104/4/2 106/4/2
f 107/1/2 108/1/2 109/1/2
f 109/1/2 108/1/2 110/1/2
f 109/3/2 110/3/2 111/3/2
f 111/3/2 110/3/2 112/3/2
f 111/4/2 112/4/2 113/4/2
f 113/4/2 112/4/2 114/4/2
f 121/4/3 118/4/3 117/4/3
f 121/2/3 119/2/3 118/2/3
f 122/4/3 120/4/3 119/4/3
f 122/2/3 119/2/3 121/2/3
f 123/1/3 116/1/3 115/1/3
f 124/3/3 117/3/3 116/3/3
f 124/1/3 116/1/3 123/1/3
f 125/4/3 121/4/3 117/4/3
f 125/3/3 117/3/3 124/3/3
f 125/4/3 122/4/3 121/4/3
f 126/4/3 120/4/3 122/4/3
f 126/4/3 122/4/3 125/4/3
f 127/1/4 128/1/4 133/1/4
f 128/3/4 129/3/4 134/3/4
f 133/1/4 128/1/4 134/1/4
f 131/4/4 132/4/4 135/4/4
f 134/3/4 129/3/4 135/3/4
f 129/4/4 130/4/4 135/4/4
f 130/4/4 131/4/4 135/4/4
f 135/4/4 132/4/4 136/4/4
f 137/1/4 138/1/4 143/1/4
f 138/3/4 139/3/4 144/3/4
f 143/1/4 138/1/4 144/1/4
f 139/4/4 140/4/4 145/4/4
f 144/3/4 139/3/4 145/3/4
f 140/2/4 141/2/4 146/2/4
f 145/4/4 140/4/4 146/4/4
f 141/4/4 142/4/4 147/4/4
f 146/2/4 141/2/4 147/2/4
f 147/4/4 142/4/4 148/4/4
f 149/1/4 150/1/4 155/1/4
f 150/3/4 151/3/4 156/3/4
f 155/1/4 150/1/4 156/1/4
f 151/4/4 152/4/4 157/4/4
f 156/3/4 151/3/4 157/3/4
f 152/2/4 153/2/4 158/2/4
f 157/4/4 152/4/4 158/4/4
f 153/4/4 154/4/4 159/4/4
f 158/2/4 153/2/4 159/2/4
f 159/4/4 154/4/4 160/4/4
f 161/1/4 162/1/4 167/1/4
f 162/3/4 163/3/4 168/3/4
f 167/1/4 162/1/4 168/1/4
f 163/4/4 164/4/4 169/4/4
f 168/3/4 163/3/4 169/3/4
f 164/2/4 165/2/4 170/2/4
f 169/4/4 164/4/4 170/4/4
f 165/4/4 166/4/4 171/4/4
f 170/2/4 165/2/4 171/2/4
f 171/4/4 166/4/4 172/4/4
f 173/1/4 174/1/4 179/1/4
f 174/3/4 175/3/4 180/3/4
f 179/1/4 174/1/4 180/1/4
f 175/4/4 176/4/4 181/4/4
f 180/3/4 175/3/4 181/3/4
f 176/2/4 177/2/4 182/2/4
f 181/4/4 176/4/4 182/4/4
f 177/4/4 178/4/4 183/4/4
f 182/2/4 177/2/4 183/2/4
f 183/4/4 178/4/4 184/4/4
f 185/1/4 186/1/4 191/1/4
f 186/3/4 187/3/4 192/3/4
f 191/1/4 186/1/4 192/1/4
f 187/4/4 188/4/4 193/4/4
f 192/3/4 187/3/4 193/3/4
f 188/2/4 189/2/4 194/2/4
f 193/4/4 188/4/4 194/4/4
f 189/4/4 190/4/4 195/4/4
f 194/2/4 189/2/4 195/2/4
f 195/4/4 190/4/4 196/4/4
f 197/1/4 198/1/4 203/1/4
f 198/3/4 199/3/4 204/3/4
f 203/1/4 198/1/4 204/1/4
f 199/4/4 200/4/4 205/4/4
f 204/3/4 199/3/4 205/3/4
f 200/2/4 201/2/4 206/2/4
f 205/4/4 200/4/4 206/4/4
f 201/4/4 202/4/4 207/4/4
f 206/2/4 201/2/4 207/2/4
f 207/4/4 202/4/4 208/4/4
f 209/1/4 210/1/4 215/1/4
f 210/3/4 211/3/4 216/3/4
f 215/1/4 210/1/4 216/1/4
f 211/4/4 212/4/4 217/4/4
f 216/3/4 211/3/4 217/3/4
f 212/2/4 213/2/4 218/2/4
f 217/4/4 212/4/4 218/4/4
f 213/4/4 214/4/4 219/4/4
f 218/2/4 213/2/4 219/2/4
f 219/4/4 214/4/4 220/4/4
f 221/1/4 222/1/4 225/1/4
f 222/3/4 223/3/4 226/3/4
f 225/1/4 222/1/4 226/1/4
f 223/4/4 224/4/4 227/4/4
f 226/3/4 223/3/4 227/3/4
f 227/4/4 224/4/4 228/4/4
f 231/1/5 230/1/5 229/1/5
f 232/1/5 230/1/5 231/1/5
f 233/1/5 231/1/5 229/1/5
f 234/1/5 231/1/5 233/1/5
f 235/1/5 233/1/5 229/1/5
f 236/1/5 233/1/5 235/1/5
f 237/1/5 235/1/5 229/1/5
f 238/1/5 235/1/5 237/1/5
f 239/1/5 237/1/5 229/1/5
f 240/1/5 237/1/5 239/1/5
f 241/1/5 239/1/5 229/1/5
f 242/1/5 239/1/5 241/1/5
f 243/1/5 241/1/5 229/1/5
f 244/1/5 241/1/5 243/1/5
f 245/1/5 243/1/5 229/1/5
f 246/1/5 243/1/5 245/1/5
f 247/1/5 245/1/5 229/1/5
f 248/1/5 245/1/5 247/1/5
f 249/4/6 250/4/6 251/4/6
f 251/4/6 250/4/6 252/4/6
f 249/4/6 251/4/6 253/4/6
f 253/4/6 251/4/6 254/4/6
f 249/4/6 253/4/6 255/4/6
f 255/4/6 253/4/6 256/4/6
f 249/4/6 255/4/6 257/4/6
f 257/4/6 255/4/6 258/4/6
f 249/4/6 257/4/6 259/4/6
f 259/4/6 257/4/6 260/4/6
f 249/4/6 259/4/6 261/4/6
f 261/4/6 259/4/6 262/4/6
f 249/4/6 261/4/6 263/4/6
f 263/4/6 261/4/6 264/4/6
f 249/4/6 263/4/6 265/4/6
f 265/4/6 263/4/6 266/4/6
f 249/4/6 265/4/6 267/4/6
f 267/4/6 265/4/6 268/4/6
