# MagicaVoxel @ ephtracy

# material
mtllib HockeyBoards.mtl
usemtl palette

# normals
vn -1 0 0
vn 1 0 0
vn 0 0 1
vn 0 0 -1
vn 0 -1 0
vn 0 1 0

# texcoords
vt 0.185547 0.5
vt 0.705078 0.5
vt 0.958984 0.5
vt 0.970703 0.5

# verts
v -22.5 0 -14.5
v -22.5 0 -22.5
v -22.5 4 -14.5
v -22.5 4 -22.5
v -22.5 17 -14.5
v -22.5 17 -22.5
v -22.5 65 -14.5
v -22.5 65 -22.5
v 22.5 0 -14.5
v 22.5 0 -22.5
v 22.5 4 -14.5
v 22.5 4 -22.5
v 22.5 17 -14.5
v 22.5 17 -22.5
v 22.5 65 -14.5
v 22.5 65 -22.5
v -22.5 0 -14.5
v -22.5 4 -14.5
v -22.5 17 -14.5
v -22.5 65 -14.5
v -20.5 19 -14.5
v -20.5 63 -14.5
v 20.5 19 -14.5
v 20.5 63 -14.5
v 22.5 0 -14.5
v 22.5 4 -14.5
v 22.5 17 -14.5
v 22.5 65 -14.5
v -22.5 0 -22.5
v -22.5 4 -22.5
v -22.5 17 -22.5
v -22.5 65 -22.5
v -20.5 19 -22.5
v -20.5 62 -22.5
v 20.5 19 -22.5
v 20.5 62 -22.5
v 22.5 0 -22.5
v 22.5 4 -22.5
v 22.5 17 -22.5
v 22.5 65 -22.5
v -22.5 0 -14.5
v 22.5 0 -14.5
v -21.5 0 -15.5
v 20.5 0 -15.5
v -21.5 0 -21.5
v 20.5 0 -21.5
v -22.5 0 -22.5
v 22.5 0 -22.5
v -22.5 65 -14.5
v 22.5 65 -14.5
v -22.5 65 -22.5
v 22.5 65 -22.5

# faces
f 3/1/1 2/1/1 1/1/1
f 4/1/1 2/1/1 3/1/1
f 5/3/1 4/3/1 3/3/1
f 6/3/1 4/3/1 5/3/1
f 7/4/1 6/4/1 5/4/1
f 8/4/1 6/4/1 7/4/1
f 9/1/2 10/1/2 11/1/2
f 11/1/2 10/1/2 12/1/2
f 11/3/2 12/3/2 13/3/2
f 13/3/2 12/3/2 14/3/2
f 13/4/2 14/4/2 15/4/2
f 15/4/2 14/4/2 16/4/2
f 21/4/3 20/4/3 19/4/3
f 22/4/3 20/4/3 21/4/3
f 23/4/3 21/4/3 19/4/3
f 23/2/3 22/2/3 21/2/3
f 24/4/3 20/4/3 22/4/3
f 24/2/3 22/2/3 23/2/3
f 25/1/3 18/1/3 17/1/3
f 26/3/3 19/3/3 18/3/3
f 26/1/3 18/1/3 25/1/3
f 27/4/3 23/4/3 19/4/3
f 27/3/3 19/3/3 26/3/3
f 27/4/3 24/4/3 23/4/3
f 28/4/3 20/4/3 24/4/3
f 28/4/3 24/4/3 27/4/3
f 31/4/4 32/4/4 33/4/4
f 33/4/4 32/4/4 34/4/4
f 31/4/4 33/4/4 35/4/4
f 33/2/4 34/2/4 35/2/4
f 34/4/4 32/4/4 36/4/4
f 35/2/4 34/2/4 36/2/4
f 29/1/4 30/1/4 37/1/4
f 30/3/4 31/3/4 38/3/4
f 37/1/4 30/1/4 38/1/4
f 31/4/4 35/4/4 39/4/4
f 38/3/4 31/3/4 39/3/4
f 35/4/4 36/4/4 39/4/4
f 36/4/4 32/4/4 40/4/4
f 39/4/4 36/4/4 40/4/4
f 43/1/5 42/1/5 41/1/5
f 44/1/5 42/1/5 43/1/5
f 45/1/5 43/1/5 41/1/5
f 45/3/5 44/3/5 43/3/5
f 46/1/5 42/1/5 44/1/5
f 46/3/5 44/3/5 45/3/5
f 47/1/5 45/1/5 41/1/5
f 47/1/5 46/1/5 45/1/5
f 48/1/5 42/1/5 46/1/5
f 48/1/5 46/1/5 47/1/5
f 49/4/6 50/4/6 51/4/6
f 51/4/6 50/4/6 52/4/6
