# MagicaVoxel @ ephtracy

# material
mtllib NewsPaperBox.mtl
usemtl palette

# normals
vn -1 0 0
vn 1 0 0
vn 0 0 1
vn 0 0 -1
vn 0 -1 0
vn 0 1 0

# texcoords
vt 0.0214844 0.5
vt 0.0683594 0.5
vt 0.0917969 0.5
vt 0.705078 0.5
vt 0.841797 0.5
vt 0.958984 0.5
vt 0.994141 0.5

# verts
v -5 28 4
v -5 28 3
v -5 31 4
v -5 31 3
v -4 27 5
v -4 27 2
v -4 27 1
v -4 27 -2
v -4 28 4
v -4 28 3
v -4 28 -0
v -4 28 -1
v -4 31 4
v -4 31 3
v -4 31 -0
v -4 31 -1
v -4 32 5
v -4 32 2
v -4 32 1
v -4 32 -2
v -3 0 12
v -3 0 -10
v -3 2 11
v -3 2 -9
v -3 3 10
v -3 3 -8
v -3 14 10
v -3 14 -8
v -3 15 11
v -3 15 -9
v -3 16 12
v -3 16 9
v -3 16 -7
v -3 16 -10
v -3 17 8
v -3 17 -6
v -3 18 6
v -3 18 5
v -3 19 7
v -3 19 6
v -3 19 5
v -3 19 4
v -3 19 2
v -3 19 -1
v -3 19 -2
v -3 19 -5
v -3 20 7
v -3 20 6
v -3 20 5
v -3 20 4
v -3 20 3
v -3 20 1
v -3 20 -0
v -3 20 -3
v -3 20 -5
v -3 21 -3
v -3 21 -5
v -3 22 -2
v -3 22 -4
v -3 23 7
v -3 23 6
v -3 23 5
v -3 23 4
v -3 23 3
v -3 23 1
v -3 23 -0
v -3 23 -2
v -3 23 -4
v -3 24 7
v -3 24 6
v -3 24 5
v -3 24 4
v -3 24 2
v -3 24 -1
v -3 24 -2
v -3 24 -5
v -3 25 6
v -3 25 5
v -3 26 8
v -3 26 -6
v -3 27 5
v -3 27 2
v -3 27 1
v -3 27 -2
v -3 28 9
v -3 28 6
v -3 28 -3
v -3 28 -7
v -3 32 6
v -3 32 5
v -3 32 2
v -3 32 1
v -3 32 -2
v -3 32 -3
v 0 16 9
v 0 16 -7
v 0 28 9
v 0 28 6
v 0 28 -3
v 0 28 -7
v 0 32 6
v 0 32 -3
v 10 0 12
v 10 0 -10
v 10 4 10
v 10 4 9
v 10 4 8
v 10 4 7
v 10 4 6
v 10 4 3
v 10 4 1
v 10 4 -0
v 10 4 -1
v 10 4 -2
v 10 4 -4
v 10 4 -7
v 10 5 5
v 10 5 3
v 10 5 2
v 10 5 1
v 10 5 -0
v 10 5 -1
v 10 5 -2
v 10 5 -3
v 10 5 -4
v 10 5 -6
v 10 6 5
v 10 6 3
v 10 6 -0
v 10 6 -1
v 10 6 -4
v 10 6 -6
v 10 7 5
v 10 7 3
v 10 7 -5
v 10 7 -7
v 10 8 9
v 10 8 8
v 10 8 5
v 10 8 3
v 10 8 -5
v 10 8 -7
v 10 9 10
v 10 9 7
v 10 9 6
v 10 9 3
v 10 9 2
v 10 9 1
v 10 9 -2
v 10 9 -3
v 10 9 -4
v 10 9 -5
v 10 9 -7
v 10 9 -8
v 10 10 10
v 10 10 7
v 10 10 6
v 10 10 3
v 10 10 2
v 10 10 1
v 10 10 -0
v 10 10 -1
v 10 10 -4
v 10 10 -5
v 10 10 -8
v 10 10 -9
v 10 11 10
v 10 11 8
v 10 11 5
v 10 11 4
v 10 11 -3
v 10 11 -4
v 10 11 -5
v 10 11 -8
v 10 11 -9
v 10 11 -10
v 10 12 10
v 10 12 8
v 10 12 -6
v 10 12 -7
v 10 13 9
v 10 13 7
v 10 13 -6
v 10 13 -7
v 10 14 9
v 10 14 7
v 10 14 1
v 10 14 -0
v 10 14 -3
v 10 14 -4
v 10 14 -5
v 10 14 -8
v 10 14 -9
v 10 14 -10
v 10 15 10
v 10 15 7
v 10 15 6
v 10 15 5
v 10 15 4
v 10 15 3
v 10 15 2
v 10 15 -1
v 10 15 -4
v 10 15 -5
v 10 15 -8
v 10 15 -9
v 10 16 12
v 10 16 -5
v 10 16 -8
v 10 16 -10
v -3 0 12
v -3 16 12
v -2 4 12
v -2 5 12
v -2 7 12
v -2 12 12
v -2 14 12
v -2 15 12
v -1 4 12
v -1 5 12
v -1 6 12
v -1 7 12
v -1 12 12
v -1 13 12
v -1 14 12
v -1 15 12
v 0 5 12
v 0 6 12
v 0 7 12
v 0 8 12
v 0 11 12
v 0 12 12
v 0 13 12
v 0 14 12
v 1 4 12
v 1 5 12
v 1 6 12
v 1 7 12
v 1 8 12
v 1 11 12
v 1 12 12
v 1 13 12
v 1 14 12
v 1 15 12
v 2 6 12
v 2 7 12
v 2 12 12
v 2 13 12
v 3 9 12
v 3 10 12
v 4 9 12
v 4 10 12
v 5 6 12
v 5 7 12
v 5 12 12
v 5 13 12
v 6 4 12
v 6 5 12
v 6 6 12
v 6 7 12
v 6 8 12
v 6 11 12
v 6 12 12
v 6 13 12
v 6 14 12
v 6 15 12
v 7 5 12
v 7 6 12
v 7 7 12
v 7 8 12
v 7 11 12
v 7 12 12
v 7 13 12
v 7 14 12
v 8 4 12
v 8 5 12
v 8 6 12
v 8 7 12
v 8 12 12
v 8 13 12
v 8 14 12
v 8 15 12
v 9 4 12
v 9 5 12
v 9 7 12
v 9 12 12
v 9 14 12
v 9 15 12
v 10 0 12
v 10 16 12
v -3 16 9
v -3 28 9
v 0 16 9
v 0 28 9
v -3 28 6
v -3 32 6
v 0 28 6
v 0 32 6
v -4 27 5
v -4 32 5
v -3 27 5
v -3 32 5
v -5 28 4
v -5 31 4
v -4 28 4
v -4 31 4
v -4 27 1
v -4 32 1
v -3 27 1
v -3 32 1
v -5 28 3
v -5 31 3
v -4 28 3
v -4 31 3
v -4 27 2
v -4 32 2
v -3 27 2
v -3 32 2
v -4 27 -2
v -4 32 -2
v -3 27 -2
v -3 32 -2
v -3 28 -3
v -3 32 -3
v 0 28 -3
v 0 32 -3
v -3 16 -7
v -3 28 -7
v 0 16 -7
v 0 28 -7
v -3 0 -10
v -3 16 -10
v -2 4 -10
v -2 6 -10
v -2 10 -10
v -2 12 -10
v -1 3 -10
v -1 4 -10
v -1 6 -10
v -1 7 -10
v -1 9 -10
v -1 10 -10
v -1 12 -10
v -1 13 -10
v 0 2 -10
v 0 3 -10
v 0 4 -10
v 0 12 -10
v 0 13 -10
v 0 14 -10
v 3 6 -10
v 3 7 -10
v 3 9 -10
v 3 10 -10
v 3 11 -10
v 3 12 -10
v 4 7 -10
v 4 9 -10
v 4 11 -10
v 4 12 -10
v 5 2 -10
v 5 3 -10
v 5 4 -10
v 5 12 -10
v 5 13 -10
v 5 14 -10
v 6 3 -10
v 6 4 -10
v 6 5 -10
v 6 11 -10
v 6 12 -10
v 6 13 -10
v 7 4 -10
v 7 5 -10
v 7 11 -10
v 7 12 -10
v 8 5 -10
v 8 11 -10
v 9 11 -10
v 9 14 -10
v 10 0 -10
v 10 11 -10
v 10 14 -10
v 10 16 -10
v -3 0 12
v 10 0 12
v -3 0 -10
v 10 0 -10
v -4 27 5
v -3 27 5
v -4 27 2
v -3 27 2
v -4 27 1
v -3 27 1
v -4 27 -2
v -3 27 -2
v -5 28 4
v -4 28 4
v -5 28 3
v -4 28 3
v -3 16 12
v 10 16 12
v -3 16 9
v 0 16 9
v 9 16 -5
v 10 16 -5
v -3 16 -7
v 0 16 -7
v 9 16 -8
v 10 16 -8
v -3 16 -10
v 10 16 -10
v -3 28 9
v 0 28 9
v -3 28 6
v 0 28 6
v -3 28 -3
v 0 28 -3
v -3 28 -7
v 0 28 -7
v -5 31 4
v -4 31 4
v -5 31 3
v -4 31 3
v -3 32 6
v 0 32 6
v -4 32 5
v -3 32 5
v -4 32 2
v -3 32 2
v -4 32 1
v -3 32 1
v -4 32 -2
v -3 32 -2
v -3 32 -3
v 0 32 -3

# faces
f 3/7/1 2/7/1 1/7/1
f 4/7/1 2/7/1 3/7/1
f 9/5/1 6/5/1 5/5/1
f 10/5/1 6/5/1 9/5/1
f 11/7/1 8/7/1 7/7/1
f 12/7/1 8/7/1 11/7/1
f 13/5/1 9/5/1 5/5/1
f 14/5/1 6/5/1 10/5/1
f 15/6/1 12/6/1 11/6/1
f 15/7/1 11/7/1 7/7/1
f 16/7/1 8/7/1 12/7/1
f 16/6/1 12/6/1 15/6/1
f 17/5/1 13/5/1 5/5/1
f 17/5/1 14/5/1 13/5/1
f 18/5/1 6/5/1 14/5/1
f 18/5/1 14/5/1 17/5/1
f 19/7/1 15/7/1 7/7/1
f 19/7/1 16/7/1 15/7/1
f 20/7/1 8/7/1 16/7/1
f 20/7/1 16/7/1 19/7/1
f 23/5/1 22/5/1 21/5/1
f 24/5/1 22/5/1 23/5/1
f 25/7/1 24/7/1 23/7/1
f 26/7/1 24/7/1 25/7/1
f 27/7/1 25/7/1 23/7/1
f 27/4/1 26/4/1 25/4/1
f 28/7/1 24/7/1 26/7/1
f 28/4/1 26/4/1 27/4/1
f 29/5/1 23/5/1 21/5/1
f 29/7/1 27/7/1 23/7/1
f 29/7/1 28/7/1 27/7/1
f 30/7/1 24/7/1 28/7/1
f 30/7/1 28/7/1 29/7/1
f 30/5/1 22/5/1 24/5/1
f 31/5/1 29/5/1 21/5/1
f 31/5/1 30/5/1 29/5/1
f 32/5/1 30/5/1 31/5/1
f 33/5/1 30/5/1 32/5/1
f 34/5/1 22/5/1 30/5/1
f 34/5/1 30/5/1 33/5/1
f 35/5/1 33/5/1 32/5/1
f 36/5/1 33/5/1 35/5/1
f 37/6/1 36/6/1 35/6/1
f 38/6/1 36/6/1 37/6/1
f 39/6/1 37/6/1 35/6/1
f 40/7/1 38/7/1 37/7/1
f 40/6/1 37/6/1 39/6/1
f 41/6/1 36/6/1 38/6/1
f 41/7/1 38/7/1 40/7/1
f 42/6/1 36/6/1 41/6/1
f 43/6/1 36/6/1 42/6/1
f 44/6/1 36/6/1 43/6/1
f 45/6/1 36/6/1 44/6/1
f 46/6/1 36/6/1 45/6/1
f 47/7/1 40/7/1 39/7/1
f 47/6/1 39/6/1 35/6/1
f 47/7/1 41/7/1 40/7/1
f 47/7/1 42/7/1 41/7/1
f 48/7/1 42/7/1 47/7/1
f 49/7/1 42/7/1 48/7/1
f 50/6/1 43/6/1 42/6/1
f 50/7/1 42/7/1 49/7/1
f 51/6/1 43/6/1 50/6/1
f 52/7/1 44/7/1 43/7/1
f 53/7/1 44/7/1 52/7/1
f 54/7/1 46/7/1 45/7/1
f 55/6/1 36/6/1 46/6/1
f 55/7/1 46/7/1 54/7/1
f 56/7/1 54/7/1 45/7/1
f 56/6/1 55/6/1 54/6/1
f 57/6/1 36/6/1 55/6/1
f 57/6/1 55/6/1 56/6/1
f 58/7/1 56/7/1 45/7/1
f 58/6/1 45/6/1 44/6/1
f 58/7/1 57/7/1 56/7/1
f 59/7/1 57/7/1 58/7/1
f 60/6/1 47/6/1 35/6/1
f 60/6/1 48/6/1 47/6/1
f 61/7/1 49/7/1 48/7/1
f 61/6/1 48/6/1 60/6/1
f 62/6/1 50/6/1 49/6/1
f 62/7/1 49/7/1 61/7/1
f 63/7/1 51/7/1 50/7/1
f 63/6/1 50/6/1 62/6/1
f 64/6/1 43/6/1 51/6/1
f 64/7/1 51/7/1 63/7/1
f 65/6/1 53/6/1 52/6/1
f 65/7/1 52/7/1 43/7/1
f 66/7/1 44/7/1 53/7/1
f 66/6/1 53/6/1 65/6/1
f 67/6/1 59/6/1 58/6/1
f 67/6/1 58/6/1 44/6/1
f 68/7/1 57/7/1 59/7/1
f 68/6/1 59/6/1 67/6/1
f 69/7/1 63/7/1 62/7/1
f 69/6/1 60/6/1 35/6/1
f 69/7/1 61/7/1 60/7/1
f 69/7/1 62/7/1 61/7/1
f 70/7/1 63/7/1 69/7/1
f 71/7/1 63/7/1 70/7/1
f 72/6/1 64/6/1 63/6/1
f 72/7/1 63/7/1 71/7/1
f 73/7/1 65/7/1 43/7/1
f 73/6/1 64/6/1 72/6/1
f 73/6/1 43/6/1 64/6/1
f 73/7/1 66/7/1 65/7/1
f 74/6/1 67/6/1 44/6/1
f 74/7/1 66/7/1 73/7/1
f 74/7/1 44/7/1 66/7/1
f 75/7/1 68/7/1 67/7/1
f 75/6/1 67/6/1 74/6/1
f 76/6/1 36/6/1 57/6/1
f 76/7/1 68/7/1 75/7/1
f 76/7/1 57/7/1 68/7/1
f 77/6/1 70/6/1 69/6/1
f 77/7/1 71/7/1 70/7/1
f 78/6/1 75/6/1 74/6/1
f 78/7/1 71/7/1 77/7/1
f 78/6/1 72/6/1 71/6/1
f 78/6/1 76/6/1 75/6/1
f 78/6/1 73/6/1 72/6/1
f 78/6/1 74/6/1 73/6/1
f 79/5/1 35/5/1 32/5/1
f 79/6/1 77/6/1 69/6/1
f 79/6/1 78/6/1 77/6/1
f 79/6/1 69/6/1 35/6/1
f 80/6/1 76/6/1 78/6/1
f 80/6/1 78/6/1 79/6/1
f 80/5/1 33/5/1 36/5/1
f 80/6/1 36/6/1 76/6/1
f 81/5/1 80/5/1 79/5/1
f 82/5/1 80/5/1 81/5/1
f 83/5/1 80/5/1 82/5/1
f 84/5/1 80/5/1 83/5/1
f 85/5/1 79/5/1 32/5/1
f 85/5/1 81/5/1 79/5/1
f 86/5/1 81/5/1 85/5/1
f 87/5/1 80/5/1 84/5/1
f 88/5/1 33/5/1 80/5/1
f 88/5/1 80/5/1 87/5/1
f 89/5/1 81/5/1 86/5/1
f 90/5/1 81/5/1 89/5/1
f 91/5/1 83/5/1 82/5/1
f 92/5/1 83/5/1 91/5/1
f 93/5/1 87/5/1 84/5/1
f 94/5/1 87/5/1 93/5/1
f 95/5/2 96/5/2 97/5/2
f 97/5/2 96/5/2 98/5/2
f 98/5/2 96/5/2 99/5/2
f 99/5/2 96/5/2 100/5/2
f 98/5/2 99/5/2 101/5/2
f 101/5/2 99/5/2 102/5/2
f 103/5/2 104/5/2 105/5/2
f 105/5/2 104/5/2 106/5/2
f 106/5/2 104/5/2 107/5/2
f 107/5/2 104/5/2 108/5/2
f 108/5/2 104/5/2 109/5/2
f 109/5/2 104/5/2 110/5/2
f 110/5/2 104/5/2 111/5/2
f 111/5/2 104/5/2 112/5/2
f 112/5/2 104/5/2 113/5/2
f 113/5/2 104/5/2 114/5/2
f 114/5/2 104/5/2 115/5/2
f 115/5/2 104/5/2 116/5/2
f 109/7/2 110/7/2 117/7/2
f 110/5/2 111/5/2 118/5/2
f 117/7/2 110/7/2 118/7/2
f 118/5/2 111/5/2 119/5/2
f 111/7/2 112/7/2 120/7/2
f 119/5/2 111/5/2 120/5/2
f 112/5/2 113/5/2 121/5/2
f 120/7/2 112/7/2 121/7/2
f 113/7/2 114/7/2 122/7/2
f 121/5/2 113/5/2 122/5/2
f 114/5/2 115/5/2 123/5/2
f 122/7/2 114/7/2 123/7/2
f 123/5/2 115/5/2 124/5/2
f 115/7/2 116/7/2 125/7/2
f 124/5/2 115/5/2 125/5/2
f 125/7/2 116/7/2 126/7/2
f 109/7/2 117/7/2 127/7/2
f 118/5/2 119/5/2 127/5/2
f 117/5/2 118/5/2 127/5/2
f 127/5/2 119/5/2 128/5/2
f 120/5/2 121/5/2 129/5/2
f 121/7/2 122/7/2 129/7/2
f 122/5/2 123/5/2 130/5/2
f 129/7/2 122/7/2 130/7/2
f 125/5/2 126/5/2 131/5/2
f 124/5/2 125/5/2 131/5/2
f 126/7/2 116/7/2 132/7/2
f 131/5/2 126/5/2 132/5/2
f 127/7/2 128/7/2 133/7/2
f 109/7/2 127/7/2 133/7/2
f 128/5/2 119/5/2 134/5/2
f 133/7/2 128/7/2 134/7/2
f 131/7/2 132/7/2 135/7/2
f 116/5/2 104/5/2 136/5/2
f 135/7/2 132/7/2 136/7/2
f 132/7/2 116/7/2 136/7/2
f 105/7/2 106/7/2 137/7/2
f 106/5/2 107/5/2 137/5/2
f 107/7/2 108/7/2 138/7/2
f 137/5/2 107/5/2 138/5/2
f 109/7/2 133/7/2 139/7/2
f 133/5/2 134/5/2 139/5/2
f 134/5/2 119/5/2 140/5/2
f 139/5/2 134/5/2 140/5/2
f 135/5/2 136/5/2 141/5/2
f 131/7/2 135/7/2 141/7/2
f 136/5/2 104/5/2 142/5/2
f 141/5/2 136/5/2 142/5/2
f 103/5/2 105/5/2 143/5/2
f 105/7/2 137/7/2 143/7/2
f 137/7/2 138/7/2 143/7/2
f 108/5/2 109/5/2 144/5/2
f 143/7/2 138/7/2 144/7/2
f 138/7/2 108/7/2 144/7/2
f 139/7/2 140/7/2 145/7/2
f 144/5/2 109/5/2 145/5/2
f 109/7/2 139/7/2 145/7/2
f 140/5/2 119/5/2 146/5/2
f 145/7/2 140/7/2 146/7/2
f 119/7/2 120/7/2 147/7/2
f 146/5/2 119/5/2 147/5/2
f 120/5/2 129/5/2 148/5/2
f 147/7/2 120/7/2 148/7/2
f 129/5/2 130/5/2 148/5/2
f 130/5/2 123/5/2 149/5/2
f 148/5/2 130/5/2 149/5/2
f 123/7/2 124/7/2 149/7/2
f 124/5/2 131/5/2 150/5/2
f 149/7/2 124/7/2 150/7/2
f 131/7/2 141/7/2 151/7/2
f 150/5/2 131/5/2 151/5/2
f 141/7/2 142/7/2 151/7/2
f 151/7/2 142/7/2 152/7/2
f 142/5/2 104/5/2 153/5/2
f 152/7/2 142/7/2 153/7/2
f 153/5/2 104/5/2 154/5/2
f 151/5/2 152/5/2 155/5/2
f 149/5/2 150/5/2 155/5/2
f 144/5/2 145/5/2 155/5/2
f 146/5/2 147/5/2 155/5/2
f 150/5/2 151/5/2 155/5/2
f 145/5/2 146/5/2 155/5/2
f 147/5/2 148/5/2 155/5/2
f 148/5/2 149/5/2 155/5/2
f 143/5/2 144/5/2 155/5/2
f 103/5/2 143/5/2 155/5/2
f 155/5/2 152/5/2 156/5/2
f 156/5/2 152/5/2 157/5/2
f 157/5/2 152/5/2 158/5/2
f 158/5/2 152/5/2 159/5/2
f 159/5/2 152/5/2 160/5/2
f 160/5/2 152/5/2 161/5/2
f 161/5/2 152/5/2 162/5/2
f 162/5/2 152/5/2 163/5/2
f 153/6/2 154/6/2 164/6/2
f 163/5/2 152/5/2 164/5/2
f 152/6/2 153/6/2 164/6/2
f 154/5/2 104/5/2 165/5/2
f 164/6/2 154/6/2 165/6/2
f 165/5/2 104/5/2 166/5/2
f 103/5/2 155/5/2 167/5/2
f 155/7/2 156/7/2 167/7/2
f 167/7/2 156/7/2 168/7/2
f 157/7/2 158/7/2 169/7/2
f 169/7/2 158/7/2 170/7/2
f 162/5/2 163/5/2 171/5/2
f 163/1/2 164/1/2 172/1/2
f 171/5/2 163/5/2 172/5/2
f 164/3/2 165/3/2 173/3/2
f 172/1/2 164/1/2 173/1/2
f 165/1/2 166/1/2 174/1/2
f 173/3/2 165/3/2 174/3/2
f 166/5/2 104/5/2 175/5/2
f 174/1/2 166/1/2 175/1/2
f 175/5/2 104/5/2 176/5/2
f 103/5/2 167/5/2 177/5/2
f 167/5/2 168/5/2 177/5/2
f 168/7/2 156/7/2 178/7/2
f 177/5/2 168/5/2 178/5/2
f 173/1/2 174/1/2 179/1/2
f 179/1/2 174/1/2 180/1/2
f 177/7/2 178/7/2 181/7/2
f 178/7/2 156/7/2 182/7/2
f 181/7/2 178/7/2 182/7/2
f 156/5/2 157/5/2 182/5/2
f 179/6/2 180/6/2 183/6/2
f 173/1/2 179/1/2 183/1/2
f 180/1/2 174/1/2 184/1/2
f 183/6/2 180/6/2 184/6/2
f 177/7/2 181/7/2 185/7/2
f 181/5/2 182/5/2 185/5/2
f 182/5/2 157/5/2 186/5/2
f 185/5/2 182/5/2 186/5/2
f 159/7/2 160/7/2 187/7/2
f 160/5/2 161/5/2 187/5/2
f 161/7/2 162/7/2 188/7/2
f 187/5/2 161/5/2 188/5/2
f 162/5/2 171/5/2 189/5/2
f 171/6/2 172/6/2 189/6/2
f 172/3/2 173/3/2 190/3/2
f 189/6/2 172/6/2 190/6/2
f 173/1/2 183/1/2 191/1/2
f 190/3/2 173/3/2 191/3/2
f 183/1/2 184/1/2 191/1/2
f 184/1/2 174/1/2 192/1/2
f 191/1/2 184/1/2 192/1/2
f 174/3/2 175/3/2 192/3/2
f 175/6/2 176/6/2 193/6/2
f 192/3/2 175/3/2 193/3/2
f 193/6/2 176/6/2 194/6/2
f 177/7/2 185/7/2 195/7/2
f 103/5/2 177/5/2 195/5/2
f 185/7/2 186/7/2 195/7/2
f 186/5/2 157/5/2 196/5/2
f 195/7/2 186/7/2 196/7/2
f 157/7/2 169/7/2 197/7/2
f 196/5/2 157/5/2 197/5/2
f 169/5/2 170/5/2 198/5/2
f 197/7/2 169/7/2 198/7/2
f 170/7/2 158/7/2 199/7/2
f 198/5/2 170/5/2 199/5/2
f 158/5/2 159/5/2 200/5/2
f 199/7/2 158/7/2 200/7/2
f 159/7/2 187/7/2 201/7/2
f 200/5/2 159/5/2 201/5/2
f 187/7/2 188/7/2 201/7/2
f 188/7/2 162/7/2 202/7/2
f 201/7/2 188/7/2 202/7/2
f 162/5/2 189/5/2 202/5/2
f 189/5/2 190/5/2 202/5/2
f 190/1/2 191/1/2 203/1/2
f 202/5/2 190/5/2 203/5/2
f 191/3/2 192/3/2 204/3/2
f 203/1/2 191/1/2 204/1/2
f 192/1/2 193/1/2 205/1/2
f 204/3/2 192/3/2 205/3/2
f 193/5/2 194/5/2 206/5/2
f 205/1/2 193/1/2 206/1/2
f 200/5/2 201/5/2 207/5/2
f 197/5/2 198/5/2 207/5/2
f 199/5/2 200/5/2 207/5/2
f 202/5/2 203/5/2 207/5/2
f 201/5/2 202/5/2 207/5/2
f 195/5/2 196/5/2 207/5/2
f 203/5/2 204/5/2 207/5/2
f 103/5/2 195/5/2 207/5/2
f 198/5/2 199/5/2 207/5/2
f 196/5/2 197/5/2 207/5/2
f 204/6/2 205/6/2 208/6/2
f 207/5/2 204/5/2 208/5/2
f 205/5/2 206/5/2 209/5/2
f 208/6/2 205/6/2 209/6/2
f 206/5/2 194/5/2 210/5/2
f 209/5/2 206/5/2 210/5/2
f 213/5/3 212/5/3 211/5/3
f 214/5/3 212/5/3 213/5/3
f 215/5/3 212/5/3 214/5/3
f 216/5/3 212/5/3 215/5/3
f 217/5/3 212/5/3 216/5/3
f 218/5/3 212/5/3 217/5/3
f 219/5/3 213/5/3 211/5/3
f 219/1/3 214/1/3 213/1/3
f 220/5/3 215/5/3 214/5/3
f 220/1/3 214/1/3 219/1/3
f 221/5/3 215/5/3 220/5/3
f 222/6/3 216/6/3 215/6/3
f 222/5/3 215/5/3 221/5/3
f 223/5/3 217/5/3 216/5/3
f 223/6/3 216/6/3 222/6/3
f 224/5/3 217/5/3 223/5/3
f 225/1/3 218/1/3 217/1/3
f 225/5/3 217/5/3 224/5/3
f 226/5/3 212/5/3 218/5/3
f 226/1/3 218/1/3 225/1/3
f 227/1/3 221/1/3 220/1/3
f 227/5/3 220/5/3 219/5/3
f 228/6/3 222/6/3 221/6/3
f 228/1/3 221/1/3 227/1/3
f 229/2/3 223/2/3 222/2/3
f 229/6/3 222/6/3 228/6/3
f 230/2/3 223/2/3 229/2/3
f 231/2/3 223/2/3 230/2/3
f 232/6/3 224/6/3 223/6/3
f 232/2/3 223/2/3 231/2/3
f 233/1/3 225/1/3 224/1/3
f 233/6/3 224/6/3 232/6/3
f 234/5/3 226/5/3 225/5/3
f 234/1/3 225/1/3 233/1/3
f 235/5/3 219/5/3 211/5/3
f 235/5/3 227/5/3 219/5/3
f 236/6/3 228/6/3 227/6/3
f 236/5/3 227/5/3 235/5/3
f 237/1/3 229/1/3 228/1/3
f 237/6/3 228/6/3 236/6/3
f 238/2/3 230/2/3 229/2/3
f 238/1/3 229/1/3 237/1/3
f 239/1/3 231/1/3 230/1/3
f 239/2/3 230/2/3 238/2/3
f 240/2/3 232/2/3 231/2/3
f 240/1/3 231/1/3 239/1/3
f 241/1/3 233/1/3 232/1/3
f 241/2/3 232/2/3 240/2/3
f 242/6/3 234/6/3 233/6/3
f 242/1/3 233/1/3 241/1/3
f 243/5/3 226/5/3 234/5/3
f 243/6/3 234/6/3 242/6/3
f 244/5/3 212/5/3 226/5/3
f 244/5/3 226/5/3 243/5/3
f 245/2/3 238/2/3 237/2/3
f 245/2/3 237/2/3 236/2/3
f 246/1/3 239/1/3 238/1/3
f 246/2/3 238/2/3 245/2/3
f 246/1/3 241/1/3 240/1/3
f 246/1/3 240/1/3 239/1/3
f 247/2/3 242/2/3 241/2/3
f 247/1/3 241/1/3 246/1/3
f 247/2/3 243/2/3 242/2/3
f 248/2/3 243/2/3 247/2/3
f 249/1/3 246/1/3 245/1/3
f 249/1/3 247/1/3 246/1/3
f 249/1/3 248/1/3 247/1/3
f 250/1/3 248/1/3 249/1/3
f 251/1/3 249/1/3 245/1/3
f 251/6/3 250/6/3 249/6/3
f 252/1/3 248/1/3 250/1/3
f 252/6/3 250/6/3 251/6/3
f 253/2/3 245/2/3 236/2/3
f 253/1/3 251/1/3 245/1/3
f 253/1/3 252/1/3 251/1/3
f 254/1/3 252/1/3 253/1/3
f 255/1/3 248/1/3 252/1/3
f 255/1/3 252/1/3 254/1/3
f 256/2/3 243/2/3 248/2/3
f 256/1/3 248/1/3 255/1/3
f 257/5/3 235/5/3 211/5/3
f 257/6/3 236/6/3 235/6/3
f 258/2/3 254/2/3 253/2/3
f 258/6/3 236/6/3 257/6/3
f 258/2/3 253/2/3 236/2/3
f 259/2/3 254/2/3 258/2/3
f 260/1/3 255/1/3 254/1/3
f 260/2/3 254/2/3 259/2/3
f 261/1/3 255/1/3 260/1/3
f 262/1/3 255/1/3 261/1/3
f 263/2/3 256/2/3 255/2/3
f 263/1/3 255/1/3 262/1/3
f 264/2/3 243/2/3 256/2/3
f 264/2/3 256/2/3 263/2/3
f 265/6/3 244/6/3 243/6/3
f 265/2/3 243/2/3 264/2/3
f 266/5/3 212/5/3 244/5/3
f 266/6/3 244/6/3 265/6/3
f 267/6/3 259/6/3 258/6/3
f 267/5/3 258/5/3 257/5/3
f 268/1/3 260/1/3 259/1/3
f 268/6/3 259/6/3 267/6/3
f 269/2/3 261/2/3 260/2/3
f 269/1/3 260/1/3 268/1/3
f 270/1/3 262/1/3 261/1/3
f 270/2/3 261/2/3 269/2/3
f 271/2/3 263/2/3 262/2/3
f 271/1/3 262/1/3 270/1/3
f 272/1/3 264/1/3 263/1/3
f 272/2/3 263/2/3 271/2/3
f 273/6/3 265/6/3 264/6/3
f 273/1/3 264/1/3 272/1/3
f 274/5/3 266/5/3 265/5/3
f 274/6/3 265/6/3 273/6/3
f 275/5/3 257/5/3 211/5/3
f 275/5/3 267/5/3 257/5/3
f 276/1/3 268/1/3 267/1/3
f 276/5/3 267/5/3 275/5/3
f 277/6/3 269/6/3 268/6/3
f 277/1/3 268/1/3 276/1/3
f 278/2/3 272/2/3 271/2/3
f 278/6/3 269/6/3 277/6/3
f 278/2/3 270/2/3 269/2/3
f 278/2/3 271/2/3 270/2/3
f 279/6/3 273/6/3 272/6/3
f 279/2/3 272/2/3 278/2/3
f 280/1/3 274/1/3 273/1/3
f 280/6/3 273/6/3 279/6/3
f 281/5/3 266/5/3 274/5/3
f 281/1/3 274/1/3 280/1/3
f 282/5/3 212/5/3 266/5/3
f 282/5/3 266/5/3 281/5/3
f 283/5/3 275/5/3 211/5/3
f 283/1/3 276/1/3 275/1/3
f 284/5/3 277/5/3 276/5/3
f 284/1/3 276/1/3 283/1/3
f 284/5/3 278/5/3 277/5/3
f 285/6/3 279/6/3 278/6/3
f 285/5/3 278/5/3 284/5/3
f 286/5/3 280/5/3 279/5/3
f 286/6/3 279/6/3 285/6/3
f 286/5/3 281/5/3 280/5/3
f 287/1/3 282/1/3 281/1/3
f 287/5/3 281/5/3 286/5/3
f 288/5/3 212/5/3 282/5/3
f 288/1/3 282/1/3 287/1/3
f 289/5/3 285/5/3 284/5/3
f 289/5/3 283/5/3 211/5/3
f 289/5/3 288/5/3 287/5/3
f 289/5/3 284/5/3 283/5/3
f 289/5/3 287/5/3 286/5/3
f 289/5/3 286/5/3 285/5/3
f 290/5/3 212/5/3 288/5/3
f 290/5/3 288/5/3 289/5/3
f 293/5/3 292/5/3 291/5/3
f 294/5/3 292/5/3 293/5/3
f 297/5/3 296/5/3 295/5/3
f 298/5/3 296/5/3 297/5/3
f 301/5/3 300/5/3 299/5/3
f 302/5/3 300/5/3 301/5/3
f 305/7/3 304/7/3 303/7/3
f 306/7/3 304/7/3 305/7/3
f 309/7/3 308/7/3 307/7/3
f 310/7/3 308/7/3 309/7/3
f 311/7/4 312/7/4 313/7/4
f 313/7/4 312/7/4 314/7/4
f 315/5/4 316/5/4 317/5/4
f 317/5/4 316/5/4 318/5/4
f 319/7/4 320/7/4 321/7/4
f 321/7/4 320/7/4 322/7/4
f 323/5/4 324/5/4 325/5/4
f 325/5/4 324/5/4 326/5/4
f 327/5/4 328/5/4 329/5/4
f 329/5/4 328/5/4 330/5/4
f 331/5/4 332/5/4 333/5/4
f 333/5/4 332/5/4 334/5/4
f 334/5/4 332/5/4 335/5/4
f 335/5/4 332/5/4 336/5/4
f 331/5/4 333/5/4 337/5/4
f 333/7/4 334/7/4 338/7/4
f 337/5/4 333/5/4 338/5/4
f 334/5/4 335/5/4 339/5/4
f 338/7/4 334/7/4 339/7/4
f 339/5/4 335/5/4 340/5/4
f 340/5/4 335/5/4 341/5/4
f 335/7/4 336/7/4 342/7/4
f 341/5/4 335/5/4 342/5/4
f 336/5/4 332/5/4 343/5/4
f 342/7/4 336/7/4 343/7/4
f 343/5/4 332/5/4 344/5/4
f 331/5/4 337/5/4 345/5/4
f 337/7/4 338/7/4 346/7/4
f 345/5/4 337/5/4 346/5/4
f 338/1/4 339/1/4 347/1/4
f 346/7/4 338/7/4 347/7/4
f 342/1/4 343/1/4 348/1/4
f 343/7/4 344/7/4 348/7/4
f 344/5/4 332/5/4 349/5/4
f 348/7/4 344/7/4 349/7/4
f 349/5/4 332/5/4 350/5/4
f 339/7/4 340/7/4 351/7/4
f 347/1/4 339/1/4 351/1/4
f 346/1/4 347/1/4 351/1/4
f 340/5/4 341/5/4 352/5/4
f 351/7/4 340/7/4 352/7/4
f 341/7/4 342/7/4 353/7/4
f 352/5/4 341/5/4 353/5/4
f 342/1/4 348/1/4 354/1/4
f 353/7/4 342/7/4 354/7/4
f 348/1/4 349/1/4 354/1/4
f 354/1/4 349/1/4 355/1/4
f 355/1/4 349/1/4 356/1/4
f 351/1/4 352/1/4 357/1/4
f 352/7/4 353/7/4 357/7/4
f 353/1/4 354/1/4 358/1/4
f 357/7/4 353/7/4 358/7/4
f 354/1/4 355/1/4 358/1/4
f 355/7/4 356/7/4 359/7/4
f 358/1/4 355/1/4 359/1/4
f 356/1/4 349/1/4 360/1/4
f 359/7/4 356/7/4 360/7/4
f 331/5/4 345/5/4 361/5/4
f 345/7/4 346/7/4 361/7/4
f 358/1/4 359/1/4 362/1/4
f 361/7/4 346/7/4 362/7/4
f 357/1/4 358/1/4 362/1/4
f 351/1/4 357/1/4 362/1/4
f 346/1/4 351/1/4 362/1/4
f 359/1/4 360/1/4 362/1/4
f 362/1/4 360/1/4 363/1/4
f 360/1/4 349/1/4 364/1/4
f 363/1/4 360/1/4 364/1/4
f 349/7/4 350/7/4 365/7/4
f 364/1/4 349/1/4 365/1/4
f 350/5/4 332/5/4 366/5/4
f 365/7/4 350/7/4 366/7/4
f 362/7/4 363/7/4 367/7/4
f 361/5/4 362/5/4 367/5/4
f 363/1/4 364/1/4 368/1/4
f 367/7/4 363/7/4 368/7/4
f 368/1/4 364/1/4 369/1/4
f 369/1/4 364/1/4 370/1/4
f 364/7/4 365/7/4 371/7/4
f 370/1/4 364/1/4 371/1/4
f 365/5/4 366/5/4 372/5/4
f 371/7/4 365/7/4 372/7/4
f 367/5/4 368/5/4 373/5/4
f 368/7/4 369/7/4 373/7/4
f 369/1/4 370/1/4 374/1/4
f 373/7/4 369/7/4 374/7/4
f 370/7/4 371/7/4 375/7/4
f 374/1/4 370/1/4 375/1/4
f 371/5/4 372/5/4 376/5/4
f 375/7/4 371/7/4 376/7/4
f 373/5/4 374/5/4 377/5/4
f 374/7/4 375/7/4 377/7/4
f 375/5/4 376/5/4 378/5/4
f 377/7/4 375/7/4 378/7/4
f 377/5/4 378/5/4 379/5/4
f 378/5/4 376/5/4 379/5/4
f 366/5/4 332/5/4 380/5/4
f 379/5/4 376/5/4 380/5/4
f 376/5/4 372/5/4 380/5/4
f 372/5/4 366/5/4 380/5/4
f 331/5/4 361/5/4 381/5/4
f 361/5/4 367/5/4 381/5/4
f 377/5/4 379/5/4 381/5/4
f 373/5/4 377/5/4 381/5/4
f 367/5/4 373/5/4 381/5/4
f 379/6/4 380/6/4 382/6/4
f 381/5/4 379/5/4 382/5/4
f 380/5/4 332/5/4 383/5/4
f 382/6/4 380/6/4 383/6/4
f 383/5/4 332/5/4 384/5/4
f 387/5/5 386/5/5 385/5/5
f 388/5/5 386/5/5 387/5/5
f 391/5/5 390/5/5 389/5/5
f 392/5/5 390/5/5 391/5/5
f 395/7/5 394/7/5 393/7/5
f 396/7/5 394/7/5 395/7/5
f 399/7/5 398/7/5 397/7/5
f 400/7/5 398/7/5 399/7/5
f 401/5/6 402/5/6 403/5/6
f 403/5/6 402/5/6 404/5/6
f 404/5/6 402/5/6 405/5/6
f 405/5/6 402/5/6 406/5/6
f 404/5/6 405/5/6 408/5/6
f 405/6/6 406/6/6 409/6/6
f 407/5/6 408/5/6 409/5/6
f 408/5/6 405/5/6 409/5/6
f 409/6/6 406/6/6 410/6/6
f 407/5/6 409/5/6 411/5/6
f 409/5/6 410/5/6 411/5/6
f 411/5/6 410/5/6 412/5/6
f 413/5/6 414/5/6 415/5/6
f 415/5/6 414/5/6 416/5/6
f 417/5/6 418/5/6 419/5/6
f 419/5/6 418/5/6 420/5/6
f 421/7/6 422/7/6 423/7/6
f 423/7/6 422/7/6 424/7/6
f 425/5/6 426/5/6 428/5/6
f 427/5/6 428/5/6 429/5/6
f 428/5/6 426/5/6 430/5/6
f 429/5/6 428/5/6 430/5/6
f 430/5/6 426/5/6 432/5/6
f 431/7/6 432/7/6 433/7/6
f 432/5/6 426/5/6 434/5/6
f 433/7/6 432/7/6 434/7/6
f 434/5/6 426/5/6 435/5/6
f 435/5/6 426/5/6 436/5/6
