# MagicaVoxel @ ephtracy

# material
mtllib NewsPaperBox.mtl
usemtl palette

# normals
vn -1 0 0
vn 1 0 0
vn 0 0 1
vn 0 0 -1
vn 0 -1 0
vn 0 1 0

# texcoords
vt 0.591797 0.5
vt 0.705078 0.5
vt 0.822266 0.5
vt 0.841797 0.5
vt 0.919922 0.5
vt 0.994141 0.5

# verts
v 2.5 0 15.5
v 2.5 0 4.5
v 2.5 0 3.5
v 2.5 0 -7.5
v 2.5 4 14.5
v 2.5 4 5.5
v 2.5 4 2.5
v 2.5 4 -6.5
v 2.5 5 13.5
v 2.5 5 6.5
v 2.5 5 1.5
v 2.5 5 -5.5
v 2.5 11 13.5
v 2.5 11 6.5
v 2.5 11 1.5
v 2.5 11 -5.5
v 2.5 12 14.5
v 2.5 12 5.5
v 2.5 12 2.5
v 2.5 12 -6.5
v 2.5 15 15.5
v 2.5 15 13.5
v 2.5 15 6.5
v 2.5 15 4.5
v 2.5 15 3.5
v 2.5 15 1.5
v 2.5 15 -5.5
v 2.5 15 -7.5
v 2.5 16 13.5
v 2.5 16 11.5
v 2.5 16 8.5
v 2.5 16 6.5
v 2.5 16 1.5
v 2.5 16 -0.5
v 2.5 16 -3.5
v 2.5 16 -5.5
v 2.5 18 11.5
v 2.5 18 8.5
v 2.5 18 -0.5
v 2.5 18 -3.5
v 4.5 15 13.5
v 4.5 15 6.5
v 4.5 15 1.5
v 4.5 15 -5.5
v 4.5 16 13.5
v 4.5 16 11.5
v 4.5 16 8.5
v 4.5 16 6.5
v 4.5 16 1.5
v 4.5 16 -0.5
v 4.5 16 -3.5
v 4.5 16 -5.5
v 4.5 18 11.5
v 4.5 18 8.5
v 4.5 18 -0.5
v 4.5 18 -3.5
v 9.5 0 15.5
v 9.5 0 4.5
v 9.5 0 3.5
v 9.5 0 -7.5
v 9.5 15 15.5
v 9.5 15 4.5
v 9.5 15 3.5
v 9.5 15 -7.5
v 2.5 0 15.5
v 2.5 15 15.5
v 9.5 0 15.5
v 9.5 15 15.5
v 2.5 15 13.5
v 2.5 16 13.5
v 4.5 15 13.5
v 4.5 16 13.5
v 2.5 16 11.5
v 2.5 18 11.5
v 4.5 16 11.5
v 4.5 18 11.5
v 2.5 0 3.5
v 2.5 15 3.5
v 3.5 0 3.5
v 3.5 14 3.5
v 8.5 0 3.5
v 8.5 14 3.5
v 9.5 0 3.5
v 9.5 15 3.5
v 2.5 15 1.5
v 2.5 16 1.5
v 4.5 15 1.5
v 4.5 16 1.5
v 2.5 16 -0.5
v 2.5 18 -0.5
v 4.5 16 -0.5
v 4.5 18 -0.5
v 2.5 16 8.5
v 2.5 18 8.5
v 4.5 16 8.5
v 4.5 18 8.5
v 2.5 15 6.5
v 2.5 16 6.5
v 4.5 15 6.5
v 4.5 16 6.5
v 2.5 0 4.5
v 2.5 15 4.5
v 9.5 0 4.5
v 9.5 15 4.5
v 2.5 16 -3.5
v 2.5 18 -3.5
v 4.5 16 -3.5
v 4.5 18 -3.5
v 2.5 15 -5.5
v 2.5 16 -5.5
v 4.5 15 -5.5
v 4.5 16 -5.5
v 2.5 0 -7.5
v 2.5 15 -7.5
v 9.5 0 -7.5
v 9.5 15 -7.5
v 2.5 0 15.5
v 9.5 0 15.5
v 2.5 0 4.5
v 9.5 0 4.5
v 2.5 0 3.5
v 3.5 0 3.5
v 8.5 0 3.5
v 9.5 0 3.5
v 3.5 0 -6.5
v 8.5 0 -6.5
v 2.5 0 -7.5
v 9.5 0 -7.5
v 2.5 15 15.5
v 9.5 15 15.5
v 2.5 15 13.5
v 4.5 15 13.5
v 2.5 15 6.5
v 4.5 15 6.5
v 2.5 15 4.5
v 9.5 15 4.5
v 2.5 15 3.5
v 9.5 15 3.5
v 2.5 15 1.5
v 4.5 15 1.5
v 2.5 15 -5.5
v 4.5 15 -5.5
v 2.5 15 -7.5
v 9.5 15 -7.5
v 2.5 16 13.5
v 4.5 16 13.5
v 2.5 16 11.5
v 4.5 16 11.5
v 2.5 16 8.5
v 4.5 16 8.5
v 2.5 16 6.5
v 4.5 16 6.5
v 2.5 16 1.5
v 4.5 16 1.5
v 2.5 16 -0.5
v 4.5 16 -0.5
v 2.5 16 -3.5
v 4.5 16 -3.5
v 2.5 16 -5.5
v 4.5 16 -5.5
v 2.5 18 11.5
v 4.5 18 11.5
v 2.5 18 8.5
v 4.5 18 8.5
v 2.5 18 -0.5
v 4.5 18 -0.5
v 2.5 18 -3.5
v 4.5 18 -3.5

# faces
f 5/4/1 2/4/1 1/4/1
f 6/4/1 2/4/1 5/4/1
f 7/3/1 4/3/1 3/3/1
f 8/3/1 4/3/1 7/3/1
f 9/6/1 6/6/1 5/6/1
f 10/6/1 6/6/1 9/6/1
f 11/6/1 8/6/1 7/6/1
f 12/6/1 8/6/1 11/6/1
f 13/6/1 9/6/1 5/6/1
f 13/2/1 10/2/1 9/2/1
f 14/6/1 6/6/1 10/6/1
f 14/2/1 10/2/1 13/2/1
f 15/2/1 12/2/1 11/2/1
f 15/6/1 11/6/1 7/6/1
f 16/6/1 8/6/1 12/6/1
f 16/2/1 12/2/1 15/2/1
f 17/4/1 5/4/1 1/4/1
f 17/6/1 13/6/1 5/6/1
f 17/6/1 14/6/1 13/6/1
f 18/4/1 2/4/1 6/4/1
f 18/6/1 14/6/1 17/6/1
f 18/6/1 6/6/1 14/6/1
f 19/3/1 7/3/1 3/3/1
f 19/6/1 16/6/1 15/6/1
f 19/6/1 15/6/1 7/6/1
f 20/6/1 8/6/1 16/6/1
f 20/6/1 16/6/1 19/6/1
f 20/3/1 4/3/1 8/3/1
f 21/4/1 17/4/1 1/4/1
f 21/4/1 18/4/1 17/4/1
f 22/4/1 18/4/1 21/4/1
f 23/4/1 18/4/1 22/4/1
f 24/4/1 2/4/1 18/4/1
f 24/4/1 18/4/1 23/4/1
f 25/3/1 19/3/1 3/3/1
f 25/3/1 20/3/1 19/3/1
f 26/3/1 20/3/1 25/3/1
f 27/3/1 20/3/1 26/3/1
f 28/3/1 4/3/1 20/3/1
f 28/3/1 20/3/1 27/3/1
f 29/4/1 23/4/1 22/4/1
f 30/4/1 23/4/1 29/4/1
f 31/4/1 23/4/1 30/4/1
f 32/4/1 23/4/1 31/4/1
f 33/3/1 27/3/1 26/3/1
f 34/3/1 27/3/1 33/3/1
f 35/3/1 27/3/1 34/3/1
f 36/3/1 27/3/1 35/3/1
f 37/4/1 31/4/1 30/4/1
f 38/4/1 31/4/1 37/4/1
f 39/3/1 35/3/1 34/3/1
f 40/3/1 35/3/1 39/3/1
f 41/4/2 42/4/2 45/4/2
f 45/4/2 42/4/2 46/4/2
f 46/4/2 42/4/2 47/4/2
f 47/4/2 42/4/2 48/4/2
f 43/3/2 44/3/2 49/3/2
f 49/3/2 44/3/2 50/3/2
f 50/3/2 44/3/2 51/3/2
f 51/3/2 44/3/2 52/3/2
f 46/4/2 47/4/2 53/4/2
f 53/4/2 47/4/2 54/4/2
f 50/3/2 51/3/2 55/3/2
f 55/3/2 51/3/2 56/3/2
f 57/4/2 58/4/2 61/4/2
f 61/4/2 58/4/2 62/4/2
f 59/3/2 60/3/2 63/3/2
f 63/3/2 60/3/2 64/3/2
f 67/4/3 66/4/3 65/4/3
f 68/4/3 66/4/3 67/4/3
f 71/4/3 70/4/3 69/4/3
f 72/4/3 70/4/3 71/4/3
f 75/4/3 74/4/3 73/4/3
f 76/4/3 74/4/3 75/4/3
f 79/3/3 78/3/3 77/3/3
f 80/3/3 78/3/3 79/3/3
f 81/5/3 80/5/3 79/5/3
f 82/3/3 78/3/3 80/3/3
f 82/5/3 80/5/3 81/5/3
f 83/3/3 82/3/3 81/3/3
f 84/3/3 78/3/3 82/3/3
f 84/3/3 82/3/3 83/3/3
f 87/3/3 86/3/3 85/3/3
f 88/3/3 86/3/3 87/3/3
f 91/3/3 90/3/3 89/3/3
f 92/3/3 90/3/3 91/3/3
f 93/4/4 94/4/4 95/4/4
f 95/4/4 94/4/4 96/4/4
f 97/4/4 98/4/4 99/4/4
f 99/4/4 98/4/4 100/4/4
f 101/4/4 102/4/4 103/4/4
f 103/4/4 102/4/4 104/4/4
f 105/3/4 106/3/4 107/3/4
f 107/3/4 106/3/4 108/3/4
f 109/3/4 110/3/4 111/3/4
f 111/3/4 110/3/4 112/3/4
f 113/3/4 114/3/4 115/3/4
f 115/3/4 114/3/4 116/3/4
f 119/4/5 118/4/5 117/4/5
f 120/4/5 118/4/5 119/4/5
f 125/3/5 122/3/5 121/3/5
f 125/5/5 123/5/5 122/5/5
f 126/3/5 124/3/5 123/3/5
f 126/5/5 123/5/5 125/5/5
f 127/3/5 125/3/5 121/3/5
f 127/3/5 126/3/5 125/3/5
f 128/3/5 124/3/5 126/3/5
f 128/3/5 126/3/5 127/3/5
f 129/4/6 130/4/6 131/4/6
f 131/4/6 130/4/6 132/4/6
f 132/4/6 130/4/6 134/4/6
f 133/4/6 134/4/6 135/4/6
f 134/4/6 130/4/6 136/4/6
f 135/4/6 134/4/6 136/4/6
f 137/3/6 138/3/6 139/3/6
f 139/3/6 138/3/6 140/3/6
f 140/3/6 138/3/6 142/3/6
f 141/3/6 142/3/6 143/3/6
f 142/3/6 138/3/6 144/3/6
f 143/3/6 142/3/6 144/3/6
f 145/4/6 146/4/6 147/4/6
f 147/4/6 146/4/6 148/4/6
f 149/4/6 150/4/6 151/4/6
f 151/4/6 150/4/6 152/4/6
f 153/3/6 154/3/6 155/3/6
f 155/3/6 154/3/6 156/3/6
f 157/3/6 158/3/6 159/3/6
f 159/3/6 158/3/6 160/3/6
f 161/4/6 162/4/6 163/4/6
f 163/4/6 162/4/6 164/4/6
f 165/3/6 166/3/6 167/3/6
f 167/3/6 166/3/6 168/3/6
